<svg width="15" height="15" viewBox="0 0 15 15" fill="none" xmlns="http://www.w3.org/2000/svg">
<path d="M10.75 3H9.986C9.8615 1.8765 8.906 1 7.75 1H3.25C2.0095 1 1 2.0095 1 3.25V10.177C1 10.4815 1.1665 10.76 1.4355 10.9035C1.5575 10.969 1.691 11.001 1.824 11.001C1.9835 11.001 2.143 10.9545 2.281 10.8625L4.043 9.688C4.2475 10.7195 5.1595 11.4995 6.25 11.4995H9.6745L11.719 12.8625C11.857 12.955 12.016 13.001 12.176 13.001C12.309 13.001 12.4425 12.969 12.5645 12.9035C12.833 12.76 13 12.4815 13 12.177V5.25C13 4.0095 11.9905 3 10.75 3ZM2.0035 10.447C1.902 10.5145 1.7785 10.521 1.671 10.463C1.564 10.406 1.5 10.299 1.5 10.1775V3.25C1.5 2.285 2.285 1.5 3.25 1.5H7.75C8.715 1.5 9.5 2.285 9.5 3.25V7.25C9.5 8.215 8.715 9 7.75 9H4.2815C4.2045 9 4.139 9.027 4.109 9.0435L2.0035 10.447ZM12.5 12.1775C12.5 12.299 12.436 12.406 12.329 12.463C12.222 12.5205 12.0975 12.514 11.9965 12.447L9.889 11.042C9.848 11.0145 9.7995 11 9.7505 11H6.2505C5.3705 11 4.64 10.347 4.5185 9.5H7.7505C8.991 9.5 10.0005 8.4905 10.0005 7.25V3.5H10.7505C11.7155 3.5 12.5005 4.285 12.5005 5.25V12.177L12.5 12.1775Z" fill="#9A9A9A"/>
</svg>
