<svg width="42" height="42" viewBox="0 0 42 42" fill="none" xmlns="http://www.w3.org/2000/svg">
<path d="M20.5244 3.08203C20.6741 2.62137 21.3259 2.62138 21.4756 3.08203L25.0146 13.9746C25.2156 14.5924 25.7917 15.0107 26.4414 15.0107H37.8945C38.3788 15.0108 38.5802 15.6303 38.1885 15.915L28.9229 22.6475C28.3971 23.0294 28.1771 23.7062 28.3779 24.3242L31.917 35.2168C32.0667 35.6774 31.5393 36.0601 31.1475 35.7754L21.8818 29.0439C21.3561 28.662 20.6439 28.662 20.1182 29.0439L10.8525 35.7754C10.4607 36.0601 9.93334 35.6774 10.083 35.2168L13.6221 24.3242C13.8229 23.7062 13.6029 23.0294 13.0771 22.6475L3.81152 15.915C3.41982 15.6303 3.62117 15.0108 4.10547 15.0107H15.5586C16.2083 15.0107 16.7844 14.5924 16.9854 13.9746L20.5244 3.08203Z" stroke="#9A9A9A"/>
</svg>
