<svg width="10" height="9" viewBox="0 0 10 9" fill="none" xmlns="http://www.w3.org/2000/svg">
<path d="M7.29074 0C6.82174 0.00747223 6.36298 0.141575 5.96076 0.388767C5.55855 0.635959 5.22714 0.987486 5 1.40785C4.77286 0.987486 4.44145 0.635959 4.03924 0.388767C3.63703 0.141575 3.17826 0.00747223 2.70926 0C1.96162 0.0332724 1.25722 0.368282 0.749957 0.931839C0.242694 1.4954 -0.0262017 2.24169 0.00201631 3.00768C0.00201631 4.94752 1.99538 7.06612 3.6672 8.50255C4.04048 8.82385 4.51243 9 5 9C5.48757 9 5.95952 8.82385 6.3328 8.50255C8.00462 7.06612 9.99798 4.94752 9.99798 3.00768C10.0262 2.24169 9.75731 1.4954 9.25004 0.931839C8.74278 0.368282 8.03838 0.0332724 7.29074 0Z" fill="#FF0000"/>
</svg>
