<svg width="10" height="9" viewBox="0 0 10 9" fill="none" xmlns="http://www.w3.org/2000/svg">
<path d="M0.251953 2.99805C0.226211 2.29632 0.472353 1.61323 0.935547 1.09863C1.39738 0.585618 2.03724 0.281648 2.71484 0.25C3.13528 0.258409 3.54674 0.379457 3.9082 0.601562C4.27245 0.825422 4.57376 1.14425 4.78027 1.52637L5 1.93359L5.21973 1.52637C5.42624 1.14425 5.72755 0.825422 6.0918 0.601562C6.45298 0.379629 6.86408 0.258576 7.28418 0.25C7.96215 0.281402 8.60239 0.585372 9.06445 1.09863C9.4698 1.54896 9.7089 2.12844 9.74512 2.73633L9.74805 2.99805V3.00781C9.748 3.89732 9.28779 4.85848 8.5918 5.79492C7.9 6.72571 6.99874 7.60036 6.16992 8.3125V8.31348C5.84152 8.59612 5.42702 8.75 5 8.75C4.57298 8.75 4.15848 8.59612 3.83008 8.31348V8.3125C3.00126 7.60036 2.1 6.72571 1.4082 5.79492C0.712209 4.85848 0.252 3.89732 0.251953 3.00781V2.99805Z" stroke="#9A9A9A" stroke-width="0.5"/>
</svg>
