<svg width="24" height="24" viewBox="0 0 24 24" fill="none" xmlns="http://www.w3.org/2000/svg">
<path d="M12 16C13.6569 16 15 14.6569 15 13C15 11.3431 13.6569 10 12 10C10.3431 10 9 11.3431 9 13C9 14.6569 10.3431 16 12 16Z" stroke="#FFBA1A" stroke-width="1.5"/>
<path d="M9.778 21H14.222C17.343 21 18.904 21 20.025 20.265C20.5088 19.9481 20.9254 19.539 21.251 19.061C22 17.961 22 16.428 22 13.364C22 10.3 22 8.76699 21.251 7.66699C20.9254 7.18898 20.5088 6.77984 20.025 6.46299C19.305 5.98999 18.403 5.82099 17.022 5.76099C16.363 5.76099 15.796 5.27099 15.667 4.63599C15.5684 4.17085 15.3123 3.75402 14.9418 3.45594C14.5714 3.15785 14.1095 2.99679 13.634 2.99999H10.366C9.378 2.99999 8.527 3.68499 8.333 4.63599C8.204 5.27099 7.637 5.76099 6.978 5.76099C5.598 5.82099 4.696 5.99099 3.975 6.46299C3.49154 6.77995 3.07527 7.18907 2.75 7.66699C2 8.76699 2 10.299 2 13.364C2 16.429 2 17.96 2.749 19.061C3.073 19.537 3.489 19.946 3.975 20.265C5.096 21 6.657 21 9.778 21Z" stroke="#FFBA1A" stroke-width="1.5"/>
<path d="M19 10H18" stroke="#FFBA1A" stroke-width="1.5" stroke-linecap="round"/>
</svg>
