<svg width="217" height="190" viewBox="0 0 217 190" fill="none" xmlns="http://www.w3.org/2000/svg">
<path fill-rule="evenodd" clip-rule="evenodd" d="M138.549 128.243C124.902 132.83 124.362 133.046 124.362 133.925C124.362 134.073 124.548 134.38 124.774 134.607C125.109 134.943 125.334 134.998 125.987 134.906C126.428 134.843 132.772 132.791 140.085 130.345C152.127 126.318 153.408 125.849 153.672 125.378C153.931 124.914 153.931 124.799 153.666 124.323C153.44 123.916 153.208 123.779 152.695 123.751C152.257 123.727 147.328 125.292 138.549 128.243Z" fill="#FFE78D"/>
<path fill-rule="evenodd" clip-rule="evenodd" d="M162.289 110.965C162.354 111.134 162.407 114.855 162.407 119.232V127.192H161.952C161.703 127.192 160.815 127.367 159.981 127.581C155.048 128.845 151.293 132.677 149.866 137.902C149.618 138.808 149.523 139.883 149.521 141.781C149.518 144.218 149.562 144.534 150.122 146.168C151.245 149.436 152.922 151.689 155.54 153.444C157.12 154.503 159.402 155.333 161.271 155.529L162.407 155.648V161.174C162.407 166.973 162.361 167.32 161.504 168.063C161.036 168.47 116.434 184.966 115.804 184.966C115.713 184.966 115.658 171.731 115.682 155.554L115.725 126.142L133.776 120.074C143.705 116.736 154.012 113.258 156.681 112.345C159.349 111.431 161.677 110.678 161.852 110.671C162.027 110.663 162.224 110.796 162.289 110.965ZM124.362 133.925C124.362 133.046 124.902 132.83 138.549 128.243C147.328 125.292 152.257 123.727 152.695 123.751C153.208 123.779 153.44 123.916 153.666 124.323C153.931 124.799 153.931 124.914 153.672 125.378C153.408 125.849 152.127 126.318 140.085 130.345C132.772 132.791 126.428 134.843 125.987 134.906C125.334 134.998 125.109 134.943 124.774 134.607C124.548 134.38 124.362 134.073 124.362 133.925Z" fill="#FFD652"/>
<path d="M106.602 128.735C108.999 128.735 111.051 128.512 112.765 128.066L113.299 127.928V156.923V185.919L112.085 186.489C110.336 187.312 109.021 187.571 106.602 187.57C104.309 187.568 102.925 187.268 101.224 186.404L100.294 185.932V156.983V128.033L102.089 128.385C103.3 128.622 104.768 128.736 106.602 128.735Z" fill="#FFD451"/>
<path fill-rule="evenodd" clip-rule="evenodd" d="M49.8311 161.672L49.8268 156.176V152.977C51.2393 153.127 53.3029 153.047 54.3801 152.766C56.1301 152.309 57.7542 151.354 59.1556 149.957C60.5635 148.553 61.4111 147.195 62.0716 145.283C62.4245 144.262 62.5093 143.588 62.5134 141.781C62.5214 138.068 61.4963 135.4 59.144 133.011C57.741 131.586 56.5972 130.848 54.7439 130.174C53.3647 129.673 51.393 129.487 49.8268 129.683V127.153V118.899C49.8268 110.027 49.843 109.869 50.841 108.948C51.1264 108.685 52.2279 108.053 52.8059 107.962L55.121 108.83C55.1651 108.874 57.9006 109.821 61.2001 110.933C64.4995 112.046 71.5227 114.459 76.8072 116.296C87.7513 120.1 97.6944 123.525 98.8378 123.885C99.7822 124.181 100.222 124.544 100.374 125.151C100.508 125.688 100.593 125.72 103.011 126.138C106.408 126.726 112.444 126.227 113.007 125.312C113.672 124.231 113.809 124.18 136.831 116.467C149.4 112.255 159.682 108.766 159.679 108.712L162.173 107.864C162.913 107.865 163.826 108.826 164.273 109.565C164.612 110.127 164.646 110.787 164.736 118.711L164.833 127.251V129.773C162.709 129.38 160.624 129.714 158.366 130.788C157.27 131.31 156.557 131.843 155.431 132.982C153.065 135.375 151.865 138.278 151.873 141.587C151.881 144.972 153.002 147.734 155.314 150.065C157.324 152.091 159.826 153.151 162.407 153.209C163.18 153.226 163.96 153.153 164.736 152.989V156.144V161.779V167.414L164.202 168.437C163.908 168.999 163.363 169.7 162.989 169.995C162.554 170.338 158.996 171.768 153.09 173.974C139.318 179.118 129.95 182.563 121.839 185.469C117.836 186.902 114.123 188.264 113.59 188.494C110.891 189.657 109.961 189.882 107.451 189.979C104.651 190.087 102.906 189.792 100.644 188.827C99.9002 188.51 94.9098 186.599 89.5539 184.581C79.0207 180.611 73.6899 178.588 71.8575 177.867C70.5753 177.362 65.2093 175.31 57.591 172.412C54.8687 171.377 52.423 170.415 52.1561 170.276C51.4255 169.894 50.6726 169.02 50.2308 168.042C49.8633 167.229 49.835 166.779 49.8311 161.672ZM162.407 119.232C162.407 114.855 162.354 111.134 162.289 110.965C162.224 110.796 162.027 110.663 161.852 110.671C161.677 110.678 159.349 111.431 156.681 112.345C154.012 113.258 143.705 116.736 133.776 120.074L115.725 126.142L115.682 155.554C115.658 171.731 115.713 184.966 115.804 184.966C116.434 184.966 161.036 168.47 161.504 168.063C162.361 167.32 162.407 166.973 162.407 161.174V155.648L161.271 155.529C159.402 155.333 157.12 154.503 155.54 153.444C152.922 151.689 151.245 149.436 150.122 146.168C149.562 144.534 149.518 144.218 149.521 141.781C149.523 139.883 149.618 138.808 149.866 137.902C151.293 132.677 155.048 128.845 159.981 127.581C160.815 127.367 161.703 127.192 161.952 127.192H162.407V119.232ZM112.765 128.066C111.051 128.512 108.999 128.735 106.602 128.735C104.768 128.736 103.3 128.622 102.089 128.385L100.294 128.033V156.983V185.932L101.224 186.404C102.925 187.268 104.309 187.568 106.602 187.57C109.021 187.571 110.336 187.312 112.085 186.489L113.299 185.919V156.923V127.928L112.765 128.066ZM73.1192 117.633C72.2118 117.314 67.3115 115.613 62.2296 113.855C57.1478 112.096 52.9071 110.657 52.8059 110.657C52.1932 110.657 52.1561 111.139 52.1567 119.109L52.1574 127.095L53.8522 127.424C55.0018 127.648 56.1406 128.049 57.3938 128.672C58.9155 129.429 59.5219 129.875 60.8364 131.207C62.1829 132.571 62.5819 133.135 63.3943 134.822C64.699 137.532 65.0455 139.221 64.9174 142.245C64.7475 146.252 63.5781 149 60.8907 151.706C58.756 153.856 56.272 155.059 53.0781 155.492L52.1561 155.617V161.07C52.1561 161.328 52.1559 161.577 52.1558 161.815C52.1532 165.601 52.1523 166.999 52.8458 167.77C53.252 168.222 53.8964 168.459 54.9184 168.833L55.0017 168.864C55.0859 168.895 55.1725 168.927 55.2617 168.96C58.9598 170.328 72.4738 175.41 72.9251 175.602C73.3482 175.782 82.8764 179.402 94.0379 183.624C95.9884 184.362 97.6264 184.966 97.6779 184.966C97.7293 184.966 97.7493 171.726 97.7223 155.544L97.6732 126.122L95.441 125.365C93.1062 124.574 75.9754 118.64 73.1192 117.633Z" fill="#FDBC12"/>
<path fill-rule="evenodd" clip-rule="evenodd" d="M77.7814 87.3193C77.226 86.5379 75.3931 85.3715 74.0738 84.9599C68.7732 83.3067 62.9379 86.2257 62.9587 90.52C62.9659 92.0064 63.5328 93.2407 64.7066 94.3249C66.601 96.0749 69.8268 96.9615 72.5854 96.4904C76.3473 95.8479 78.9491 93.4484 78.938 90.6317C78.9337 89.5313 78.5285 88.3709 77.7814 87.3193Z" fill="#FFEBD0"/>
<path fill-rule="evenodd" clip-rule="evenodd" d="M150.643 90.5239C150.612 87.7051 148.302 85.468 144.614 84.6849C142.453 84.226 140.547 84.4425 138.562 85.3725C136.767 86.2134 135.922 86.9657 135.244 88.325C134.487 89.8419 134.443 91.2392 135.107 92.6637C136.419 95.4832 140.741 97.1977 144.554 96.4118C146.412 96.0288 147.621 95.4573 148.779 94.4138C150.056 93.2636 150.659 92.0049 150.643 90.5239Z" fill="#FFEBD0"/>
<path d="M49.8268 156.176V152.977C49.5356 152.946 49.272 152.905 49.0504 152.855C47.7307 152.553 45.57 151.416 44.4467 150.431C42.422 148.656 40.8544 145.586 40.4771 142.657C40.3007 141.288 40.3199 140.708 40.5916 139.208C41.4628 134.397 44.7095 130.81 49.099 129.809C49.328 129.756 49.5721 129.715 49.8268 129.683V127.153L48.3639 127.479C44.3287 128.379 40.657 131.547 39.0638 135.503C37.7521 138.76 37.637 142.548 38.749 145.866C39.0895 146.883 39.5751 148.069 39.828 148.503C40.6875 149.978 42.08 151.683 43.0686 152.472C44.2771 153.436 44.1515 153.451 40.7444 152.753C33.6932 151.308 25.964 147.666 20.4249 143.178C15.288 139.016 10.6914 133.434 7.73 127.761C4.5372 121.646 2.99001 115.727 2.72525 108.615C2.4306 100.7 4.4747 92.669 8.54252 85.7586C12.3192 79.3434 17.3059 74.2828 23.6484 70.4293C24.9419 69.6434 25.9468 68.8951 26.0766 68.621C26.2455 68.2646 26.2356 67.8069 26.0355 66.6946C25.8909 65.8922 25.6735 64.0175 25.5523 62.529C25.1092 57.0864 26.0029 51.6603 28.198 46.464C29.3143 43.8215 30.4037 41.8428 31.9694 39.6147C33.4725 37.4757 36.5122 34.2542 38.6659 32.5177C43.5624 28.5698 50.0563 25.8028 56.6298 24.8633C58.7835 24.5555 64.5591 24.7238 66.4227 25.1486C68.3586 25.59 68.5395 25.4774 69.761 23.0686C74.2116 14.2914 82.9509 7.47039 93.5 4.54006C95.5457 3.97185 98.7693 3.33439 101.167 3.02393C102.862 2.8047 109.235 2.91383 111.139 3.19492C118.624 4.30021 124.855 6.85938 130.575 11.1776C135.42 14.8353 139.768 20.3624 141.806 25.4552C142.651 27.5658 142.692 27.5808 145.671 26.8506C149.784 25.8419 152.104 25.5891 156.195 25.703C158.34 25.763 160.45 25.9336 161.436 26.1271C173.895 28.5733 184.596 37.3277 189.907 49.4182C191 51.9066 191.769 54.2354 192.498 57.2601C193.529 61.5389 193.745 63.5942 193.695 68.6398C193.67 71.1541 193.629 73.7312 193.605 74.3667L193.56 75.5223L195.548 76.6319C198.355 78.199 200.408 79.7194 202.739 81.9582C206.112 85.1982 208.51 88.4692 210.563 92.6318C214.431 100.472 215.374 109.716 213.24 118.887C211.839 124.91 208.518 131.511 204.203 136.849C201.525 140.163 197.335 143.986 193.754 146.382C188.787 149.706 182.489 152.162 176.382 153.156C174.416 153.475 169.977 153.781 169.977 153.597C169.977 153.536 170.425 153.156 170.973 152.753C172.277 151.794 174.067 149.517 174.927 147.725C175.305 146.938 175.785 145.52 175.994 144.573C177.697 136.851 173.333 129.252 166.234 127.581L164.833 127.251V129.773C165.4 129.878 165.969 130.034 166.546 130.242C168.42 130.919 169.674 131.755 170.978 133.2C172.938 135.371 173.922 138.038 173.927 141.198C173.933 145.37 172.045 149.044 168.756 151.258C167.47 152.124 166.109 152.699 164.736 152.989V156.144L167.502 156.277C173.94 156.586 180.836 155.409 187.058 152.939C197.933 148.62 207.433 139.566 212.65 128.546C215.635 122.24 216.979 116.319 217 109.393C217.014 104.488 216.416 100.551 215.009 96.2867C213.535 91.82 211.268 87.6076 208.415 84.0346C205.369 80.2201 200.59 76.1154 197.194 74.3978L196.169 73.8796L196.314 72.8645C196.547 71.2323 196.482 64.838 196.208 62.5123C194.881 51.2467 190.326 41.6891 182.759 34.2919C173.651 25.3881 161.719 21.4075 149.579 23.2226C147.925 23.4699 145.628 23.935 144.706 24.2093C144.45 24.2855 144.145 23.8379 143.312 22.1625C141.29 18.0994 139.184 15.2329 135.789 11.926C132.398 8.62255 129.412 6.54425 124.885 4.33503C120.493 2.19156 115.136 0.672312 110.221 0.175494C107.513 -0.0982031 102.61 -0.0447088 100.029 0.286762C97.3341 0.632823 94.678 1.17652 92.2319 1.88284C87.0028 3.39275 81.2267 6.37365 77.1954 9.64304C75.3017 11.1788 71.9453 14.6583 70.5743 16.5071C69.4875 17.9726 67.7373 20.7921 67.2709 21.8287C67.0345 22.3541 66.9723 22.3776 66.1395 22.2586C63.7225 21.9135 60.5937 21.7382 58.8526 21.8505C49.6296 22.4447 41.2487 26.0497 34.6043 32.2801C28.5986 37.9116 24.4506 45.8989 23.1142 54.4051C22.7091 56.9833 22.6955 63.0772 23.089 65.5965C23.3483 67.2566 23.3442 67.3272 22.9743 67.5417C22.7631 67.6643 21.5777 68.4272 20.3399 69.2374C10.3028 75.8069 2.83492 87.0616 0.726377 98.7957C-0.127093 103.546 -0.236956 109.483 0.441822 114.159C1.85644 123.902 6.62905 133.404 13.811 140.779C16.6125 143.655 18.5485 145.328 21.3349 147.282C29.328 152.888 39.2248 156.176 48.1005 156.176H49.8268Z" fill="#FFEBC1"/>
<path fill-rule="evenodd" clip-rule="evenodd" d="M73.1192 117.633C72.2118 117.314 67.3115 115.613 62.2296 113.855C57.1478 112.096 52.9071 110.657 52.8059 110.657C52.1932 110.657 52.1561 111.139 52.1567 119.109L52.1574 127.095L53.8522 127.424C55.0018 127.648 56.1406 128.049 57.3938 128.672C58.9155 129.429 59.5219 129.875 60.8364 131.207C62.1829 132.571 62.5819 133.135 63.3943 134.822C64.699 137.532 65.0455 139.221 64.9174 142.245C64.7475 146.252 63.5781 149 60.8907 151.706C58.756 153.856 56.272 155.059 53.0781 155.492L52.1561 155.617V161.07C52.1561 161.328 52.1559 161.577 52.1558 161.815C52.1532 165.601 52.1523 166.999 52.8458 167.77C53.252 168.222 53.8964 168.459 54.9184 168.833L55.0017 168.864C55.0859 168.895 55.1725 168.927 55.2617 168.96C58.9598 170.328 72.4738 175.41 72.9251 175.602C73.3482 175.782 82.8764 179.402 94.0379 183.624C95.9884 184.362 97.6264 184.966 97.6779 184.966C97.7293 184.966 97.7493 171.726 97.7223 155.544L97.6732 126.122L95.441 125.365C93.1062 124.574 75.9754 118.64 73.1192 117.633Z" fill="#FFD652"/>
<path d="M91.9472 117.544C87.5168 116.01 78.313 112.826 71.4946 110.469C64.6759 108.112 58.9984 106.189 58.8779 106.195C58.3592 106.225 57.629 106.655 56.3774 107.668C55.6424 108.263 55.0771 108.786 55.121 108.83C55.1651 108.874 57.9006 109.821 61.2001 110.933C64.4995 112.046 71.5227 114.459 76.8072 116.296C87.7513 120.1 97.6944 123.525 98.8378 123.885C99.7822 124.181 100.222 124.544 100.374 125.151C100.508 125.688 100.593 125.72 103.011 126.138C106.408 126.726 112.444 126.227 113.007 125.312C113.672 124.231 113.809 124.18 136.831 116.467C149.4 112.255 159.682 108.766 159.679 108.712C159.67 108.558 157.315 106.854 156.597 106.482C156.17 106.261 155.741 106.187 155.345 106.266C155.013 106.333 145.002 109.626 133.098 113.586L111.455 120.785L109.902 122.417C109.048 123.314 108.158 124.143 107.925 124.259C107.373 124.532 105.627 124.528 105.085 124.253C104.852 124.134 103.962 123.315 103.108 122.432C102.012 121.299 101.327 120.754 100.779 120.58C100.352 120.445 96.3776 119.079 91.9472 117.544Z" fill="#F5F5F5"/>
<path fill-rule="evenodd" clip-rule="evenodd" d="M135.507 85.7939C136.545 84.835 138.346 83.8963 139.848 83.5313C140.459 83.3829 141.701 83.2557 142.608 83.2483C146.599 83.216 149.82 84.8718 151.189 87.6594C151.752 88.8053 151.828 89.1471 151.825 90.5214C151.823 91.8335 151.736 92.2595 151.278 93.1975C150.273 95.2577 148.186 96.8394 145.589 97.5105C144.119 97.8904 141.12 97.9089 139.762 97.5467C137.098 96.8359 134.903 95.1883 133.934 93.1718C133.51 92.2896 133.407 91.7983 133.401 90.6119C133.394 89.3408 133.478 88.972 134.022 87.8648C134.376 87.1431 135.023 86.2407 135.507 85.7939ZM144.614 84.6849C148.302 85.468 150.612 87.7051 150.643 90.5239C150.659 92.0049 150.056 93.2636 148.779 94.4138C147.621 95.4573 146.412 96.0288 144.554 96.4118C140.741 97.1977 136.419 95.4832 135.107 92.6637C134.443 91.2392 134.487 89.8419 135.244 88.325C135.922 86.9657 136.767 86.2134 138.562 85.3725C140.547 84.4425 142.453 84.226 144.614 84.6849Z" fill="#FFEBD0"/>
<path fill-rule="evenodd" clip-rule="evenodd" d="M68.0725 83.542C65.4057 84.2596 63.2947 85.8444 62.2989 87.8766C61.8506 88.7913 61.7642 89.2194 61.7642 90.5239C61.7642 91.8039 61.8562 92.2768 62.2824 93.1882C63.2376 95.2305 65.3566 96.8351 68.0149 97.529C69.4293 97.8982 72.2805 97.8964 73.8508 97.5253C77.9778 96.5501 80.7407 93.0923 80.1127 89.6879C79.6632 87.2514 78.3441 85.5678 75.9677 84.3974C75.095 83.9675 73.9104 83.5288 73.3354 83.4226C71.8504 83.1479 69.3239 83.2053 68.0725 83.542ZM77.7814 87.3193C77.226 86.5379 75.3931 85.3715 74.0738 84.9599C68.7732 83.3067 62.9379 86.2257 62.9587 90.52C62.9659 92.0064 63.5328 93.2407 64.7066 94.3249C66.601 96.0749 69.8268 96.9615 72.5854 96.4904C76.3473 95.8479 78.9491 93.4484 78.938 90.6317C78.9337 89.5313 78.5285 88.3709 77.7814 87.3193Z" fill="#FFEED6"/>
<path fill-rule="evenodd" clip-rule="evenodd" d="M96.1122 92.7098C95.1398 90.6165 95.7697 88.4769 97.4873 88.0397C98.8726 87.687 100.05 88.1531 100.899 89.3908C102.156 91.2221 104.777 92.3194 107.416 92.12C109.439 91.9671 110.909 91.2503 112.292 89.7421C113.675 88.233 114.432 87.8218 115.585 87.9521C117.204 88.135 118.236 89.3996 118.096 91.0301C117.983 92.3509 117.255 93.6713 115.905 95.0046C113.286 97.5912 109.021 98.934 105.125 98.3993C101.067 97.8425 97.43 95.5464 96.1122 92.7098Z" fill="#885C2F"/>
<path fill-rule="evenodd" clip-rule="evenodd" d="M105.337 79.8935C104.288 80.452 103.787 81.3363 103.787 82.6293C103.787 84.0675 104.391 85.0017 105.625 85.4741C107.194 86.0748 108.599 85.6217 109.562 84.2038C110.109 83.3981 110.143 82.0356 109.639 81.0863C108.9 79.6951 106.802 79.1133 105.337 79.8935Z" fill="#FFEDC8"/>
<path fill-rule="evenodd" clip-rule="evenodd" d="M159.536 106.676C161.084 107.839 161.783 107.864 162.173 107.864L159.679 108.712C159.67 108.558 157.315 106.854 156.597 106.482C156.17 106.261 155.741 106.187 155.345 106.266C155.013 106.333 145.002 109.626 133.098 113.586L111.455 120.785L109.902 122.417C109.048 123.314 108.158 124.143 107.925 124.259C107.373 124.532 105.627 124.528 105.085 124.253C104.852 124.134 103.962 123.315 103.108 122.432C102.012 121.299 101.327 120.754 100.779 120.58C100.352 120.445 96.3776 119.079 91.9472 117.544C87.5168 116.01 78.313 112.826 71.4946 110.469C64.6759 108.112 58.9984 106.189 58.8779 106.195C58.3592 106.225 57.629 106.655 56.3774 107.668C55.6424 108.263 55.0771 108.786 55.121 108.83L52.8059 107.962C52.9138 107.944 53.0063 107.932 53.0884 107.921C53.6029 107.853 53.7152 107.838 54.7052 107.037C56.8575 105.296 57.2724 105.038 58.2985 104.801C59.1888 104.595 59.3802 104.632 61.7642 105.461C79.1158 111.5 86.5255 114.062 95.7192 117.2C98.7012 118.218 101.552 119.26 102.055 119.515C102.589 119.787 103.469 120.544 104.175 121.34C105.401 122.723 106.296 123.242 107.009 122.984C107.212 122.911 108.121 122.085 109.028 121.149L110.678 119.448L132.908 112.037C145.134 107.962 155.31 104.628 155.521 104.628C156.486 104.631 157.505 105.151 159.536 106.676Z" fill="#FFEBB9"/>
<path fill-rule="evenodd" clip-rule="evenodd" d="M49.8268 118.899V127.153L48.3639 127.479C44.3287 128.379 40.657 131.547 39.0638 135.503C37.7521 138.76 37.637 142.548 38.749 145.866C39.0895 146.883 39.5751 148.069 39.828 148.503C40.6875 149.978 42.08 151.683 43.0686 152.472C44.2771 153.436 44.1515 153.451 40.7444 152.753C33.6932 151.308 25.964 147.666 20.4249 143.178C15.288 139.016 10.6914 133.434 7.73 127.761C4.5372 121.646 2.99001 115.727 2.72525 108.615C2.4306 100.7 4.4747 92.669 8.54252 85.7586C12.3192 79.3434 17.3059 74.2828 23.6484 70.4293C24.9419 69.6434 25.9468 68.8951 26.0766 68.621C26.2455 68.2646 26.2356 67.8069 26.0355 66.6946C25.8909 65.8922 25.6735 64.0175 25.5523 62.529C25.1092 57.0864 26.0029 51.6603 28.198 46.464C29.3143 43.8215 30.4037 41.8428 31.9694 39.6147C33.4725 37.4757 36.5122 34.2542 38.6659 32.5177C43.5624 28.5698 50.0563 25.8028 56.6298 24.8633C58.7835 24.5555 64.5591 24.7238 66.4227 25.1486C68.3586 25.59 68.5395 25.4774 69.761 23.0686C74.2116 14.2914 82.9509 7.47039 93.5 4.54006C95.5457 3.97185 98.7693 3.33439 101.167 3.02393C102.862 2.8047 109.235 2.91383 111.139 3.19492C118.624 4.30021 124.855 6.85938 130.575 11.1776C135.42 14.8353 139.768 20.3624 141.806 25.4552C142.651 27.5658 142.692 27.5808 145.671 26.8506C149.784 25.8419 152.104 25.5891 156.195 25.703C158.34 25.763 160.45 25.9336 161.436 26.1271C173.895 28.5733 184.596 37.3277 189.907 49.4182C191 51.9066 191.769 54.2354 192.498 57.2601C193.529 61.5389 193.745 63.5942 193.695 68.6398C193.67 71.1541 193.629 73.7312 193.605 74.3667L193.56 75.5223L195.548 76.6319C198.355 78.199 200.408 79.7194 202.739 81.9582C206.112 85.1982 208.51 88.4692 210.563 92.6318C214.431 100.472 215.374 109.716 213.24 118.887C211.839 124.91 208.518 131.511 204.203 136.849C201.525 140.163 197.335 143.986 193.754 146.382C188.787 149.706 182.489 152.162 176.382 153.156C174.416 153.475 169.977 153.781 169.977 153.597C169.977 153.536 170.425 153.156 170.973 152.753C172.277 151.794 174.067 149.517 174.927 147.725C175.305 146.938 175.785 145.52 175.994 144.573C177.697 136.851 173.333 129.252 166.234 127.581L164.833 127.251L164.736 118.711C164.646 110.787 164.612 110.127 164.273 109.565C163.826 108.826 162.913 107.865 162.173 107.864C161.783 107.864 161.084 107.839 159.536 106.676C157.505 105.151 156.486 104.631 155.521 104.628C155.31 104.628 145.134 107.962 132.908 112.037L110.678 119.448L109.028 121.149C108.121 122.085 107.212 122.911 107.009 122.984C106.296 123.242 105.401 122.723 104.175 121.34C103.469 120.544 102.589 119.787 102.055 119.515C101.552 119.26 98.7012 118.218 95.7192 117.2C86.5255 114.062 79.1158 111.5 61.7642 105.461C59.3802 104.632 59.1888 104.595 58.2985 104.801C57.2724 105.038 56.8575 105.296 54.7052 107.037C53.7152 107.838 53.6029 107.853 53.0884 107.921C53.0063 107.932 52.9138 107.944 52.8059 107.962C52.2279 108.053 51.1264 108.685 50.841 108.948C49.843 109.869 49.8268 110.027 49.8268 118.899ZM135.507 85.7939C136.545 84.835 138.346 83.8963 139.848 83.5313C140.459 83.3829 141.701 83.2557 142.608 83.2483C146.599 83.216 149.82 84.8718 151.189 87.6594C151.752 88.8053 151.828 89.1471 151.825 90.5214C151.823 91.8335 151.736 92.2595 151.278 93.1975C150.273 95.2577 148.186 96.8394 145.589 97.5105C144.119 97.8904 141.12 97.9089 139.762 97.5467C137.098 96.8359 134.903 95.1883 133.934 93.1718C133.51 92.2896 133.407 91.7983 133.401 90.6119C133.394 89.3408 133.478 88.972 134.022 87.8648C134.376 87.1431 135.023 86.2407 135.507 85.7939ZM68.0725 83.542C65.4057 84.2596 63.2947 85.8444 62.2989 87.8766C61.8506 88.7913 61.7642 89.2194 61.7642 90.5239C61.7642 91.8039 61.8562 92.2768 62.2824 93.1882C63.2376 95.2305 65.3566 96.8351 68.0149 97.529C69.4293 97.8982 72.2805 97.8964 73.8508 97.5253C77.9778 96.5501 80.7407 93.0923 80.1127 89.6879C79.6632 87.2514 78.3441 85.5678 75.9677 84.3974C75.095 83.9675 73.9104 83.5288 73.3354 83.4226C71.8504 83.1479 69.3239 83.2053 68.0725 83.542ZM96.1122 92.7098C95.1398 90.6165 95.7697 88.4769 97.4873 88.0397C98.8726 87.687 100.05 88.1531 100.899 89.3908C102.156 91.2221 104.777 92.3194 107.416 92.12C109.439 91.9671 110.909 91.2503 112.292 89.7421C113.675 88.233 114.432 87.8218 115.585 87.9521C117.204 88.135 118.236 89.3996 118.096 91.0301C117.983 92.3509 117.255 93.6713 115.905 95.0046C113.286 97.5912 109.021 98.934 105.125 98.3993C101.067 97.8425 97.43 95.5464 96.1122 92.7098ZM105.337 79.8935C104.288 80.452 103.787 81.3363 103.787 82.6293C103.787 84.0675 104.391 85.0017 105.625 85.4741C107.194 86.0748 108.599 85.6217 109.562 84.2038C110.109 83.3981 110.143 82.0356 109.639 81.0863C108.9 79.6951 106.802 79.1133 105.337 79.8935Z" fill="white"/>
<path fill-rule="evenodd" clip-rule="evenodd" d="M77.8282 76.21C77.0193 74.1167 77.5432 71.9771 78.972 71.5398C80.1243 71.1872 81.1033 71.6532 81.8102 72.891C82.8558 74.7223 85.0354 75.8196 87.2307 75.6202C88.9134 75.4673 90.136 74.7505 91.2862 73.2423C92.4371 71.7332 93.0664 71.322 94.0258 71.4523C95.3722 71.6351 96.2305 72.8998 96.1144 74.5303C96.0206 75.8511 95.4149 77.1715 94.2918 78.5048C92.1132 81.0914 88.5661 82.4342 85.3251 81.8994C81.9498 81.3427 78.9243 79.0466 77.8282 76.21Z" fill="#885C2F"/>
<path fill-rule="evenodd" clip-rule="evenodd" d="M118.096 76.21C117.287 74.1167 117.811 71.9771 119.24 71.5398C120.392 71.1872 121.371 71.6532 122.078 72.891C123.124 74.7223 125.303 75.8196 127.498 75.6202C129.181 75.4673 130.404 74.7505 131.554 73.2423C132.705 71.7332 133.334 71.322 134.294 71.4523C135.64 71.6351 136.498 72.8998 136.382 74.5303C136.288 75.8511 135.683 77.1715 134.56 78.5048C132.381 81.0914 128.834 82.4342 125.593 81.8994C122.218 81.3427 119.192 79.0466 118.096 76.21Z" fill="#885C2F"/>
</svg>
