<svg width="100" height="100" viewBox="0 0 100 100" fill="none" xmlns="http://www.w3.org/2000/svg">
<rect width="100" height="100" rx="50" fill="#FFE2A2"/>
<path fill-rule="evenodd" clip-rule="evenodd" d="M59.3516 60.3383C55.1047 61.7648 54.9366 61.8321 54.9366 62.1053C54.9366 62.1515 54.9943 62.247 55.0647 62.3176C55.1689 62.4219 55.2392 62.4392 55.4422 62.4105C55.5794 62.391 57.5538 61.7528 59.8296 60.9921C63.5773 59.7395 63.976 59.5938 64.0581 59.4472C64.1388 59.3031 64.1386 59.2673 64.0562 59.119C63.9857 58.9924 63.9136 58.95 63.7541 58.9412C63.6176 58.9338 62.0838 59.4205 59.3516 60.3383Z" fill="#FFE78D"/>
<path fill-rule="evenodd" clip-rule="evenodd" d="M66.7397 54.9647C66.7599 55.0174 66.7764 56.1744 66.7764 57.5359V60.0114H66.635C66.5573 60.0114 66.2811 60.0658 66.0215 60.1323C64.4864 60.5256 63.3176 61.7173 62.8735 63.3423C62.7966 63.624 62.7668 63.9585 62.7662 64.5488C62.7654 65.3065 62.7789 65.405 62.9534 65.9129C63.3027 66.9296 63.8247 67.6302 64.6394 68.1759C65.131 68.5052 65.8414 68.7635 66.423 68.8244L66.7764 68.8614V70.58C66.7764 72.3836 66.7622 72.4915 66.4956 72.7226C66.3498 72.8489 52.4693 77.9794 52.2733 77.9794C52.2449 77.9794 52.2278 73.8631 52.2351 68.8322L52.2485 59.685L57.8664 57.7976C60.9562 56.7596 64.1638 55.6778 64.9944 55.3938C65.8249 55.1098 66.5492 54.8756 66.6038 54.8732C66.6584 54.8709 66.7195 54.9121 66.7397 54.9647ZM54.9366 62.1053C54.9366 61.8321 55.1047 61.7648 59.3516 60.3383C62.0838 59.4205 63.6176 58.9338 63.7541 58.9412C63.9136 58.95 63.9857 58.9924 64.0562 59.119C64.1386 59.2673 64.1388 59.3031 64.0581 59.4472C63.976 59.5938 63.5773 59.7395 59.8296 60.9921C57.5538 61.7528 55.5794 62.391 55.4422 62.4105C55.2392 62.4392 55.1689 62.4219 55.0647 62.3176C54.9943 62.247 54.9366 62.1515 54.9366 62.1053Z" fill="#FFD652"/>
<path d="M49.4094 60.4915C50.1553 60.4912 50.794 60.4219 51.3273 60.2834L51.4935 60.2403V69.258V78.2757L51.1159 78.4532C50.5717 78.7091 50.1622 78.7896 49.4094 78.7892C48.696 78.7887 48.265 78.6954 47.7357 78.4268L47.4462 78.2798V69.2764V60.2729L48.005 60.3823C48.382 60.4561 48.8388 60.4916 49.4094 60.4915Z" fill="#FFD451"/>
<path fill-rule="evenodd" clip-rule="evenodd" d="M31.7418 70.7347L31.7405 69.0256V68.0306C32.18 68.0772 32.8223 68.0525 33.1575 67.965C33.7021 67.823 34.2075 67.5258 34.6437 67.0913C35.0818 66.6549 35.3456 66.2323 35.5512 65.6377C35.661 65.3201 35.6874 65.1107 35.6887 64.5488C35.6911 63.3939 35.3721 62.564 34.6401 61.821C34.2034 61.3779 33.8475 61.1486 33.2707 60.939C32.8415 60.7829 32.2279 60.7252 31.7405 60.786V59.9992V57.4322C31.7405 54.6731 31.7455 54.624 32.0561 54.3374C32.1449 54.2555 32.4877 54.0591 32.6676 54.0307L33.3881 54.3009C33.4018 54.3146 34.2531 54.6088 35.2799 54.9548C36.3067 55.3008 38.4924 56.0513 40.137 56.6226C43.5429 57.8057 46.6373 58.8709 46.9932 58.9828C47.287 59.0751 47.4238 59.1878 47.4711 59.3766C47.513 59.5437 47.5394 59.5536 48.2919 59.6837C49.3491 59.8666 51.2276 59.7113 51.4029 59.4266C51.6097 59.0906 51.6523 59.0748 58.817 56.6758C62.7287 55.366 65.9284 54.2807 65.9275 54.2641L66.7037 54.0004C66.934 54.0007 67.2182 54.2995 67.3571 54.5294C67.4628 54.7042 67.4732 54.9095 67.5012 57.3738L67.5314 60.0298V60.8141C66.8705 60.6919 66.2217 60.7957 65.519 61.13C65.1779 61.2922 64.9559 61.4579 64.6055 61.8122C63.8693 62.5563 63.4956 63.4592 63.4981 64.4883C63.5007 65.5411 63.8496 66.4001 64.569 67.125C65.1945 67.7551 65.9733 68.0848 66.7764 68.1027C67.017 68.108 67.2597 68.0854 67.5012 68.0345V69.0155V70.7681V72.5207L67.3351 72.8387C67.2437 73.0136 67.0739 73.2317 66.9576 73.3233C66.8221 73.4299 65.7148 73.8747 63.8768 74.5608C59.591 76.1606 56.6756 77.2322 54.1514 78.1357C52.9055 78.5816 51.7502 79.005 51.5841 79.0766C50.7444 79.4383 50.4549 79.5083 49.6737 79.5384C48.8023 79.5721 48.2592 79.4802 47.5551 79.1802C47.3238 79.0816 45.7707 78.4873 44.1039 77.8595C40.8259 76.625 39.1669 75.9959 38.5966 75.7714C38.1976 75.6144 36.5276 74.9764 34.1567 74.0751C33.3095 73.7532 32.5484 73.4541 32.4654 73.4107C32.238 73.2919 32.0037 73.0202 31.8662 72.716C31.7518 72.463 31.743 72.3231 31.7418 70.7347ZM66.7764 57.5359C66.7764 56.1744 66.7599 55.0174 66.7397 54.9647C66.7195 54.9121 66.6584 54.8709 66.6038 54.8732C66.5492 54.8756 65.8249 55.1098 64.9944 55.3938C64.1638 55.6778 60.9562 56.7596 57.8664 57.7976L52.2485 59.685L52.2351 68.8322C52.2278 73.8631 52.2449 77.9794 52.2733 77.9794C52.4693 77.9794 66.3498 72.8489 66.4956 72.7226C66.7622 72.4915 66.7764 72.3836 66.7764 70.58V68.8614L66.423 68.8244C65.8414 68.7635 65.131 68.5052 64.6394 68.1759C63.8247 67.6302 63.3027 66.9296 62.9534 65.9129C62.7789 65.405 62.7654 65.3065 62.7662 64.5488C62.7668 63.9585 62.7966 63.624 62.8735 63.3423C63.3176 61.7173 64.4864 60.5256 66.0215 60.1323C66.2811 60.0658 66.5573 60.0114 66.635 60.0114H66.7764V57.5359ZM51.3273 60.2834C50.794 60.4219 50.1553 60.4912 49.4094 60.4915C48.8388 60.4916 48.382 60.4561 48.005 60.3823L47.4462 60.2729V69.2764V78.2798L47.7357 78.4268C48.265 78.6954 48.696 78.7887 49.4094 78.7892C50.1622 78.7896 50.5717 78.7091 51.1159 78.4532L51.4935 78.2757V69.258V60.2403L51.3273 60.2834ZM38.9893 57.0386C38.7069 56.9392 37.1819 56.4104 35.6003 55.8635C34.0188 55.3166 32.6991 54.869 32.6676 54.869C32.4769 54.869 32.4654 55.0188 32.4655 57.4977L32.4658 59.9811L32.9932 60.0836C33.351 60.1531 33.7054 60.278 34.0954 60.4717C34.569 60.7071 34.7577 60.8459 35.1667 61.2601C35.5858 61.6843 35.71 61.8598 35.9628 62.3844C36.3688 63.2272 36.4767 63.7525 36.4368 64.6929C36.3839 65.9393 36.02 66.7939 35.1837 67.6355C34.5193 68.304 33.7463 68.6783 32.7523 68.8127L32.4654 68.8516V70.5478C32.4654 70.628 32.4653 70.7052 32.4653 70.7794C32.4645 71.9568 32.4642 72.3917 32.68 72.6315C32.8064 72.772 33.007 72.8455 33.325 72.9621L33.3509 72.9716C33.3771 72.9812 33.4041 72.9911 33.4319 73.0014C34.5827 73.4269 38.7884 75.0075 38.9289 75.0671C39.0606 75.1231 42.0258 76.2491 45.4994 77.5622C46.1064 77.7917 46.6162 77.9794 46.6322 77.9794C46.6482 77.9794 46.6544 73.8618 46.646 68.829L46.6307 59.6787L45.936 59.4433C45.2094 59.1971 39.8782 57.3517 38.9893 57.0386Z" fill="#FDBC12"/>
<path fill-rule="evenodd" clip-rule="evenodd" d="M40.4402 47.6108C40.2674 47.3678 39.6969 47.0051 39.2864 46.877C37.6368 46.3629 35.8208 47.2707 35.8272 48.6063C35.8295 49.0685 36.0059 49.4524 36.3712 49.7896C36.9608 50.3338 37.9647 50.6096 38.8232 50.4631C39.9939 50.2632 40.8036 49.517 40.8001 48.641C40.7988 48.2987 40.6727 47.9379 40.4402 47.6108Z" fill="#FFEBD0"/>
<path fill-rule="evenodd" clip-rule="evenodd" d="M63.1153 48.6075C63.1058 47.7308 62.387 47.0351 61.2392 46.7915C60.5665 46.6488 59.9734 46.7161 59.3556 47.0054C58.7971 47.2669 58.534 47.5008 58.323 47.9236C58.0876 48.3954 58.0739 48.8299 58.2803 49.273C58.6889 50.1498 60.0339 50.683 61.2206 50.4386C61.7988 50.3195 62.1749 50.1418 62.5353 49.8173C62.9326 49.4595 63.1203 49.068 63.1153 48.6075Z" fill="#FFEBD0"/>
<path d="M31.7405 69.0256V68.0306C31.6498 68.021 31.5678 68.0084 31.4989 67.9926C31.0881 67.8989 30.4157 67.5451 30.0661 67.2389C29.436 66.6868 28.9482 65.7321 28.8307 64.8213C28.7758 64.3952 28.7818 64.215 28.8664 63.7484C29.1375 62.2522 30.1479 61.1367 31.514 60.8252C31.5852 60.809 31.6612 60.7959 31.7405 60.786V59.9992L31.2852 60.1007C30.0294 60.3805 28.8867 61.3657 28.3909 62.5961C27.9827 63.6091 27.9469 64.7872 28.2929 65.8192C28.3989 66.1353 28.55 66.5044 28.6287 66.6393C28.8962 67.0979 29.3296 67.6282 29.6372 67.8735C30.0133 68.1734 29.9742 68.1781 28.9139 67.9609C26.7195 67.5116 24.3141 66.3788 22.5903 64.9831C20.9917 63.6887 19.5612 61.9527 18.6395 60.1885C17.6459 58.2866 17.1644 56.4456 17.082 54.2338C16.9903 51.7723 17.6265 49.2746 18.8924 47.1254C20.0677 45.1303 21.6196 43.5564 23.5935 42.3579C23.996 42.1135 24.3088 41.8808 24.3492 41.7955C24.4017 41.6847 24.3986 41.5424 24.3364 41.1964C24.2914 40.9469 24.2237 40.3639 24.186 39.9009C24.0481 38.2082 24.3262 36.5207 25.0094 34.9046C25.3568 34.0828 25.6958 33.4674 26.1831 32.7745C26.6509 32.1092 27.5968 31.1073 28.2671 30.5672C29.7909 29.3394 31.8119 28.4789 33.8576 28.1867C34.5279 28.091 36.3253 28.1433 36.9052 28.2755C37.5077 28.4127 37.564 28.3777 37.9442 27.6285C39.3292 24.8988 42.049 22.7774 45.332 21.8661C45.9686 21.6894 46.9718 21.4911 47.718 21.3946C48.2454 21.3264 50.229 21.3603 50.8213 21.4477C53.1507 21.7915 55.0899 22.5874 56.8701 23.9304C58.3779 25.068 59.7309 26.7869 60.3653 28.3708C60.6282 29.0272 60.6411 29.0319 61.5681 28.8048C62.8482 28.4911 63.5702 28.4124 64.8433 28.4479C65.511 28.4665 66.1676 28.5196 66.4743 28.5798C70.3515 29.3405 73.6819 32.0632 75.3348 35.8234C75.6749 36.5973 75.9144 37.3216 76.1411 38.2623C76.4619 39.593 76.5291 40.2322 76.5135 41.8014C76.5058 42.5834 76.4931 43.3848 76.4855 43.5825L76.4716 43.9419L77.0903 44.287C77.964 44.7744 78.6028 45.2472 79.3281 45.9435C80.3778 46.9511 81.124 47.9684 81.7631 49.263C82.9669 51.7014 83.2602 54.5762 82.5963 57.4284C82.1602 59.3016 81.1266 61.3548 79.7839 63.0148C78.9502 64.0456 77.6464 65.2344 76.532 65.9797C74.9863 67.0135 73.0263 67.7772 71.1256 68.0862C70.5137 68.1857 69.1322 68.2807 69.1322 68.2234C69.1322 68.2044 69.2718 68.0864 69.4423 67.961C69.8481 67.6627 70.4052 66.9547 70.6729 66.3972C70.7905 66.1525 70.9398 65.7114 71.0048 65.4169C71.5349 63.0154 70.1766 60.6521 67.9676 60.1324L67.5314 60.0298V60.8141C67.7079 60.8467 67.8851 60.8954 68.0645 60.9601C68.6478 61.1705 69.0379 61.4307 69.4437 61.8798C70.054 62.5552 70.36 63.3847 70.3615 64.3673C70.3635 65.6649 69.7758 66.8074 68.7523 67.4962C68.3521 67.7654 67.9287 67.9443 67.5012 68.0345V69.0155L68.362 69.0569C70.3656 69.1531 72.5118 68.787 74.448 68.0187C77.8326 66.6757 80.789 63.8597 82.4125 60.4324C83.3415 58.4714 83.7599 56.63 83.7663 54.4758C83.7707 52.9504 83.5846 51.726 83.1466 50.3997C82.6879 49.0106 81.9823 47.7005 81.0945 46.5892C80.1467 45.4029 78.6593 44.1264 77.6024 43.5922L77.2835 43.431L77.3286 43.1153C77.4013 42.6077 77.3809 40.619 77.2956 39.8957C76.8826 36.3921 75.465 33.4196 73.1101 31.1191C70.2756 28.3499 66.5623 27.1119 62.7843 27.6765C62.2696 27.7534 61.5549 27.898 61.2679 27.9833C61.1881 28.007 61.0932 27.8678 60.8338 27.3467C60.2048 26.0831 59.5492 25.1916 58.4927 24.1631C57.4374 23.1358 56.5082 22.4894 55.0993 21.8023C53.7323 21.1357 52.0655 20.6632 50.5357 20.5087C49.6929 20.4236 48.1671 20.4402 47.3639 20.5433C46.5252 20.6509 45.6986 20.82 44.9373 21.0397C43.31 21.5093 41.5124 22.4363 40.2578 23.4531C39.6685 23.9308 38.6239 25.0129 38.1973 25.5879C37.8591 26.0437 37.3144 26.9205 37.1692 27.2429C37.0956 27.4063 37.0763 27.4137 36.8171 27.3766C36.0649 27.2693 35.0912 27.2148 34.5494 27.2497C31.6791 27.4345 29.0709 28.5557 27.0031 30.4934C25.134 32.2448 23.8431 34.7289 23.4272 37.3743C23.3012 38.1762 23.297 40.0714 23.4194 40.8549C23.5001 41.3712 23.4988 41.3932 23.3837 41.4599C23.318 41.498 22.9491 41.7353 22.5639 41.9873C19.4402 44.0304 17.1161 47.5307 16.4599 51.18C16.1943 52.6574 16.1601 54.5038 16.3714 55.958C16.8116 58.9881 18.2969 61.9435 20.532 64.2369C21.4039 65.1314 22.0064 65.652 22.8735 66.2596C25.361 68.0029 28.441 69.0256 31.2032 69.0256H31.7405Z" fill="#FFEBC1"/>
<path fill-rule="evenodd" clip-rule="evenodd" d="M38.9893 57.0386C38.7069 56.9392 37.1819 56.4104 35.6003 55.8635C34.0188 55.3166 32.6991 54.869 32.6676 54.869C32.4769 54.869 32.4654 55.0188 32.4655 57.4977L32.4658 59.9811L32.9932 60.0836C33.351 60.1531 33.7054 60.278 34.0954 60.4717C34.569 60.7071 34.7577 60.8459 35.1667 61.2601C35.5858 61.6843 35.71 61.8598 35.9628 62.3844C36.3688 63.2272 36.4767 63.7525 36.4368 64.6929C36.3839 65.9393 36.02 66.7939 35.1837 67.6355C34.5193 68.304 33.7463 68.6783 32.7523 68.8127L32.4654 68.8516V70.5478C32.4654 70.628 32.4653 70.7052 32.4653 70.7794C32.4645 71.9568 32.4642 72.3917 32.68 72.6315C32.8064 72.772 33.007 72.8455 33.325 72.9621L33.3509 72.9716C33.3771 72.9812 33.4041 72.9911 33.4319 73.0014C34.5827 73.4269 38.7884 75.0075 38.9289 75.0671C39.0606 75.1231 42.0258 76.2491 45.4994 77.5622C46.1064 77.7917 46.6162 77.9794 46.6322 77.9794C46.6482 77.9794 46.6544 73.8618 46.646 68.829L46.6307 59.6787L45.936 59.4433C45.2094 59.1971 39.8782 57.3517 38.9893 57.0386Z" fill="#FFD652"/>
<path d="M44.8487 57.011C43.4699 56.5338 40.6056 55.5436 38.4837 54.8105C36.3616 54.0774 34.5948 53.4793 34.5572 53.4814C34.3958 53.4905 34.1686 53.6242 33.7791 53.9394C33.5503 54.1245 33.3744 54.2872 33.3881 54.3009C33.4018 54.3146 34.2531 54.6088 35.2799 54.9548C36.3067 55.3008 38.4924 56.0513 40.137 56.6226C43.5429 57.8057 46.6373 58.8709 46.9932 58.9828C47.287 59.0751 47.4238 59.1878 47.4711 59.3766C47.513 59.5437 47.5394 59.5536 48.2919 59.6837C49.3491 59.8666 51.2276 59.7113 51.4029 59.4266C51.6097 59.0906 51.6523 59.0748 58.817 56.6758C62.7287 55.366 65.9284 54.2807 65.9275 54.2641C65.9247 54.2162 65.1919 53.6863 64.9684 53.5706C64.8355 53.5017 64.7019 53.4787 64.5786 53.5034C64.4755 53.524 61.36 54.5485 57.6553 55.7799L50.9196 58.0188L50.4363 58.5263C50.1706 58.8054 49.8937 59.0632 49.8212 59.0991C49.6492 59.1842 49.1059 59.1831 48.9373 59.0973C48.8647 59.0604 48.5879 58.8055 48.3221 58.531C47.9809 58.1785 47.7678 58.0093 47.5972 57.9552C47.4643 57.913 46.2275 57.4881 44.8487 57.011Z" fill="#F5F5F5"/>
<path fill-rule="evenodd" clip-rule="evenodd" d="M58.405 47.1364C58.728 46.8382 59.2885 46.5462 59.756 46.4327C59.946 46.3866 60.3325 46.347 60.6149 46.3447C61.857 46.3347 62.8594 46.8496 63.2853 47.7166C63.4604 48.073 63.4841 48.1793 63.4834 48.6067C63.4828 49.0147 63.4557 49.1472 63.3132 49.439C63.0002 50.0797 62.3508 50.5716 61.5425 50.7803C61.085 50.8985 60.1518 50.9042 59.7292 50.7916C58.9002 50.5705 58.217 50.0581 57.9154 49.431C57.7834 49.1566 57.7515 49.0038 57.7495 48.6348C57.7475 48.2395 57.7734 48.1248 57.9427 47.7805C58.053 47.556 58.2545 47.2754 58.405 47.1364ZM61.2392 46.7915C62.387 47.0351 63.1058 47.7308 63.1153 48.6075C63.1203 49.068 62.9326 49.4595 62.5353 49.8173C62.1749 50.1418 61.7988 50.3195 61.2206 50.4386C60.0339 50.683 58.6889 50.1498 58.2803 49.273C58.0739 48.8299 58.0876 48.3954 58.323 47.9236C58.534 47.5008 58.7971 47.2669 59.3556 47.0054C59.9734 46.7161 60.5665 46.6488 61.2392 46.7915Z" fill="#FFEBD0"/>
<path fill-rule="evenodd" clip-rule="evenodd" d="M37.4187 46.4361C36.5888 46.6592 35.9318 47.1521 35.6219 47.7841C35.4824 48.0686 35.4555 48.2018 35.4555 48.6075C35.4555 49.0055 35.4841 49.1526 35.6168 49.4361C35.914 50.0712 36.5735 50.5703 37.4008 50.7861C37.8409 50.9009 38.7283 50.9004 39.217 50.7849C40.5013 50.4816 41.3611 49.4062 41.1657 48.3475C41.0258 47.5897 40.6153 47.0661 39.8757 46.7021C39.6042 46.5684 39.2355 46.432 39.0566 46.3989C38.5944 46.3135 37.8081 46.3313 37.4187 46.4361ZM40.4402 47.6108C40.2674 47.3678 39.6969 47.0051 39.2864 46.877C37.6368 46.3629 35.8208 47.2707 35.8272 48.6063C35.8295 49.0685 36.0059 49.4524 36.3712 49.7896C36.9608 50.3338 37.9647 50.6096 38.8232 50.4631C39.9939 50.2632 40.8036 49.517 40.8001 48.641C40.7988 48.2987 40.6727 47.9379 40.4402 47.6108Z" fill="#FFEED6"/>
<path fill-rule="evenodd" clip-rule="evenodd" d="M41.4725 42.618C41.7447 42.3223 41.9426 42.1962 42.3418 42.0642C42.894 41.8816 43.6836 42.1316 44.1189 42.6269C44.4381 42.9901 44.6003 43.3399 44.6764 43.8291C44.8296 44.8144 44.3599 45.7933 43.5418 46.1943C43.2706 46.3271 43.1215 46.3589 42.7709 46.3589C42.393 46.3589 42.2862 46.3322 41.9541 46.155C41.4901 45.9073 41.171 45.5112 40.9815 44.9473C40.8763 44.6343 40.8544 44.4554 40.8743 44.0701C40.9045 43.4847 41.0906 43.033 41.4725 42.618ZM43.2351 42.714C43.4042 42.7912 43.5802 43.0656 43.5802 43.2522C43.5802 43.3245 43.5008 43.4632 43.4036 43.5605C43.2734 43.6909 43.1695 43.7374 43.0082 43.7374C42.4561 43.7374 42.2901 43.0097 42.7813 42.7427C42.9817 42.6337 43.0498 42.6295 43.2351 42.714Z" fill="#855B30"/>
<path fill-rule="evenodd" clip-rule="evenodd" d="M55.7704 42.0675C55.3862 42.1712 55.0476 42.4065 54.7622 42.768C54.4274 43.1922 54.3052 43.5896 54.3059 44.2516C54.3065 44.7339 54.3281 44.842 54.4948 45.1985C54.7175 45.6745 55.04 46.0171 55.4526 46.216C55.849 46.4071 56.471 46.4145 56.8803 46.2329C57.6787 45.8786 58.2278 44.8603 58.1059 43.9602C57.9742 42.9873 57.4128 42.2888 56.5902 42.0742C56.1802 41.9672 56.1436 41.9669 55.7704 42.0675ZM56.7869 43.5948C56.9798 43.3703 56.9715 43.1181 56.7639 42.8961C56.6726 42.7983 56.5435 42.7046 56.477 42.6878C56.1958 42.6166 55.879 42.9027 55.879 43.2278C55.879 43.7057 56.4822 43.9496 56.7869 43.5948Z" fill="#855B30"/>
<path fill-rule="evenodd" clip-rule="evenodd" d="M56.7639 42.8961C56.9715 43.1181 56.9798 43.3703 56.7869 43.5948C56.4822 43.9496 55.879 43.7057 55.879 43.2278C55.879 42.9027 56.1958 42.6166 56.477 42.6878C56.5435 42.7046 56.6726 42.7983 56.7639 42.8961Z" fill="#A48563"/>
<path fill-rule="evenodd" clip-rule="evenodd" d="M43.5802 43.2522C43.5802 43.0656 43.4042 42.7912 43.2351 42.714C43.0498 42.6295 42.9817 42.6337 42.7813 42.7427C42.2901 43.0097 42.4561 43.7374 43.0082 43.7374C43.1695 43.7374 43.2734 43.6909 43.4036 43.5605C43.5008 43.4632 43.5802 43.3245 43.5802 43.2522Z" fill="#A48563"/>
<path fill-rule="evenodd" clip-rule="evenodd" d="M46.1449 49.2873C45.8423 48.6363 46.0383 47.9708 46.5729 47.8348C47.004 47.7252 47.3703 47.8701 47.6347 48.2551C48.0259 48.8246 48.8414 49.1659 49.6628 49.1039C50.2923 49.0563 50.7497 48.8334 51.1801 48.3643C51.6107 47.895 51.8461 47.7671 52.2051 47.8076C52.7088 47.8645 53.0299 48.2578 52.9865 48.7649C52.9514 49.1757 52.7248 49.5863 52.3046 50.001C51.4895 50.8054 50.1624 51.2231 48.9498 51.0567C47.687 50.8836 46.555 50.1695 46.1449 49.2873Z" fill="#885C2F"/>
<path fill-rule="evenodd" clip-rule="evenodd" d="M49.0158 45.3014C48.6894 45.4751 48.5335 45.7501 48.5335 46.1522C48.5335 46.5995 48.7213 46.89 49.1053 47.0369C49.5938 47.2238 50.031 47.0829 50.3306 46.6419C50.5009 46.3913 50.5114 45.9676 50.3546 45.6723C50.1246 45.2397 49.4717 45.0587 49.0158 45.3014Z" fill="#FFEDC8"/>
<path fill-rule="evenodd" clip-rule="evenodd" d="M65.8831 53.6308C66.3649 53.9925 66.5822 54.0002 66.7037 54.0004L65.9275 54.2641C65.9247 54.2162 65.1919 53.6863 64.9684 53.5706C64.8355 53.5017 64.7019 53.4787 64.5786 53.5034C64.4755 53.524 61.36 54.5485 57.6553 55.7799L50.9196 58.0188L50.4363 58.5263C50.1706 58.8054 49.8937 59.0632 49.8212 59.0991C49.6492 59.1842 49.1059 59.1831 48.9373 59.0973C48.8647 59.0604 48.5879 58.8055 48.3221 58.531C47.9809 58.1785 47.7678 58.0093 47.5972 57.9552C47.4643 57.913 46.2275 57.4881 44.8487 57.011C43.4699 56.5338 40.6056 55.5436 38.4837 54.8105C36.3616 54.0774 34.5948 53.4793 34.5572 53.4814C34.3958 53.4905 34.1686 53.6242 33.7791 53.9394C33.5503 54.1245 33.3744 54.2872 33.3881 54.3009L32.6676 54.0307C32.7012 54.0253 32.7299 54.0215 32.7555 54.0181C32.9156 53.9968 32.9506 53.9922 33.2587 53.7432C33.9285 53.2017 34.0576 53.1214 34.3769 53.0477C34.654 52.9838 34.7136 52.9951 35.4555 53.2531C40.8555 55.1311 43.1614 55.9278 46.0226 56.904C46.9506 57.2206 47.8379 57.5446 47.9943 57.624C48.1607 57.7084 48.4343 57.9437 48.6542 58.1915C49.0358 58.6216 49.3141 58.7829 49.5361 58.7028C49.5993 58.6799 49.8821 58.4231 50.1645 58.1321L50.678 57.6029L57.5961 55.2983C61.4011 54.0307 64.5679 52.9938 64.6335 52.994C64.9339 52.9948 65.2511 53.1565 65.8831 53.6308Z" fill="#FFEBB9"/>
<path fill-rule="evenodd" clip-rule="evenodd" d="M31.7405 57.4322V59.9992L31.2852 60.1007C30.0294 60.3805 28.8867 61.3657 28.3909 62.5961C27.9827 63.6091 27.9469 64.7872 28.2929 65.8192C28.3989 66.1353 28.55 66.5044 28.6287 66.6393C28.8962 67.0979 29.3296 67.6282 29.6372 67.8735C30.0133 68.1734 29.9742 68.1781 28.9139 67.9609C26.7195 67.5116 24.3141 66.3788 22.5903 64.9831C20.9917 63.6887 19.5612 61.9527 18.6395 60.1885C17.6459 58.2866 17.1644 56.4456 17.082 54.2338C16.9903 51.7723 17.6265 49.2746 18.8924 47.1254C20.0677 45.1303 21.6196 43.5564 23.5935 42.3579C23.996 42.1135 24.3088 41.8808 24.3492 41.7955C24.4017 41.6847 24.3986 41.5424 24.3364 41.1964C24.2914 40.9469 24.2237 40.3639 24.186 39.9009C24.0481 38.2082 24.3262 36.5207 25.0094 34.9046C25.3568 34.0828 25.6958 33.4674 26.1831 32.7745C26.6509 32.1092 27.5968 31.1073 28.2671 30.5672C29.7909 29.3394 31.8119 28.4789 33.8576 28.1867C34.5279 28.091 36.3253 28.1433 36.9052 28.2755C37.5077 28.4127 37.564 28.3777 37.9442 27.6285C39.3292 24.8988 42.049 22.7774 45.332 21.8661C45.9686 21.6894 46.9718 21.4911 47.718 21.3946C48.2454 21.3264 50.229 21.3603 50.8213 21.4477C53.1507 21.7915 55.0899 22.5874 56.8701 23.9304C58.3779 25.068 59.7309 26.7869 60.3653 28.3708C60.6282 29.0272 60.6411 29.0319 61.5681 28.8048C62.8482 28.4911 63.5702 28.4124 64.8433 28.4479C65.511 28.4665 66.1676 28.5196 66.4743 28.5798C70.3515 29.3405 73.6819 32.0632 75.3348 35.8234C75.6749 36.5973 75.9144 37.3216 76.1411 38.2623C76.4619 39.593 76.5291 40.2322 76.5135 41.8014C76.5058 42.5834 76.4931 43.3848 76.4855 43.5825L76.4716 43.9419L77.0903 44.287C77.964 44.7744 78.6028 45.2472 79.3281 45.9435C80.3778 46.9511 81.124 47.9684 81.7631 49.263C82.9669 51.7014 83.2602 54.5762 82.5963 57.4284C82.1602 59.3016 81.1266 61.3548 79.7839 63.0148C78.9502 64.0456 77.6464 65.2344 76.532 65.9797C74.9863 67.0135 73.0263 67.7772 71.1256 68.0862C70.5137 68.1857 69.1322 68.2807 69.1322 68.2234C69.1322 68.2044 69.2718 68.0864 69.4423 67.961C69.8481 67.6627 70.4052 66.9547 70.6729 66.3972C70.7905 66.1525 70.9398 65.7114 71.0048 65.4169C71.5349 63.0154 70.1766 60.6521 67.9676 60.1324L67.5314 60.0298L67.5012 57.3738C67.4732 54.9095 67.4628 54.7042 67.3571 54.5294C67.2182 54.2995 66.934 54.0007 66.7037 54.0004C66.5822 54.0002 66.3649 53.9925 65.8831 53.6308C65.2511 53.1565 64.9339 52.9948 64.6335 52.994C64.5679 52.9938 61.4011 54.0307 57.5961 55.2983L50.678 57.6029L50.1645 58.1321C49.8821 58.4231 49.5993 58.6799 49.5361 58.7028C49.3141 58.7829 49.0358 58.6216 48.6542 58.1915C48.4343 57.9437 48.1607 57.7084 47.9943 57.624C47.8379 57.5446 46.9506 57.2206 46.0226 56.904C43.1614 55.9278 40.8555 55.1311 35.4555 53.2531C34.7136 52.9951 34.654 52.9838 34.3769 53.0477C34.0576 53.1214 33.9285 53.2017 33.2587 53.7432C32.9506 53.9922 32.9156 53.9968 32.7555 54.0181C32.7299 54.0215 32.7012 54.0253 32.6676 54.0307C32.4877 54.0591 32.1449 54.2555 32.0561 54.3374C31.7455 54.624 31.7405 54.6731 31.7405 57.4322ZM58.405 47.1364C58.728 46.8382 59.2885 46.5462 59.756 46.4327C59.946 46.3866 60.3325 46.347 60.6149 46.3447C61.857 46.3347 62.8594 46.8496 63.2853 47.7166C63.4604 48.073 63.4841 48.1793 63.4834 48.6067C63.4828 49.0147 63.4557 49.1472 63.3132 49.439C63.0002 50.0797 62.3508 50.5716 61.5425 50.7803C61.085 50.8985 60.1518 50.9042 59.7292 50.7916C58.9002 50.5705 58.217 50.0581 57.9154 49.431C57.7834 49.1566 57.7515 49.0038 57.7495 48.6348C57.7475 48.2395 57.7734 48.1248 57.9427 47.7805C58.053 47.556 58.2545 47.2754 58.405 47.1364ZM37.4187 46.4361C36.5888 46.6592 35.9318 47.1521 35.6219 47.7841C35.4824 48.0686 35.4555 48.2018 35.4555 48.6075C35.4555 49.0055 35.4841 49.1526 35.6168 49.4361C35.914 50.0712 36.5735 50.5703 37.4008 50.7861C37.8409 50.9009 38.7283 50.9004 39.217 50.7849C40.5013 50.4816 41.3611 49.4062 41.1657 48.3475C41.0258 47.5897 40.6153 47.0661 39.8757 46.7021C39.6042 46.5684 39.2355 46.432 39.0566 46.3989C38.5944 46.3135 37.8081 46.3313 37.4187 46.4361ZM41.4725 42.618C41.7447 42.3223 41.9426 42.1962 42.3418 42.0642C42.894 41.8816 43.6836 42.1316 44.1189 42.6269C44.4381 42.9901 44.6003 43.3399 44.6764 43.8291C44.8296 44.8144 44.3599 45.7933 43.5418 46.1943C43.2706 46.3271 43.1215 46.3589 42.7709 46.3589C42.393 46.3589 42.2862 46.3322 41.9541 46.155C41.4901 45.9073 41.171 45.5112 40.9815 44.9473C40.8763 44.6343 40.8544 44.4554 40.8743 44.0701C40.9045 43.4847 41.0906 43.033 41.4725 42.618ZM55.7704 42.0675C55.3862 42.1712 55.0476 42.4065 54.7622 42.768C54.4274 43.1922 54.3052 43.5896 54.3059 44.2516C54.3065 44.7339 54.3281 44.842 54.4948 45.1985C54.7175 45.6745 55.04 46.0171 55.4526 46.216C55.849 46.4071 56.471 46.4145 56.8803 46.2329C57.6787 45.8786 58.2278 44.8603 58.1059 43.9602C57.9742 42.9873 57.4128 42.2888 56.5902 42.0742C56.1802 41.9672 56.1436 41.9669 55.7704 42.0675ZM46.1449 49.2873C45.8423 48.6363 46.0383 47.9708 46.5729 47.8348C47.004 47.7252 47.3703 47.8701 47.6347 48.2551C48.0259 48.8246 48.8414 49.1659 49.6628 49.1039C50.2923 49.0563 50.7497 48.8334 51.1801 48.3643C51.6107 47.895 51.8461 47.7671 52.2051 47.8076C52.7088 47.8645 53.0299 48.2578 52.9865 48.7649C52.9514 49.1757 52.7248 49.5863 52.3046 50.001C51.4895 50.8054 50.1624 51.2231 48.9498 51.0567C47.687 50.8836 46.555 50.1695 46.1449 49.2873ZM49.0158 45.3014C48.6894 45.4751 48.5335 45.7501 48.5335 46.1522C48.5335 46.5995 48.7213 46.89 49.1053 47.0369C49.5938 47.2238 50.031 47.0829 50.3306 46.6419C50.5009 46.3913 50.5114 45.9676 50.3546 45.6723C50.1246 45.2397 49.4717 45.0587 49.0158 45.3014Z" fill="white"/>
</svg>
