<svg width="167" height="146" viewBox="0 0 167 146" fill="none" xmlns="http://www.w3.org/2000/svg">
<path fill-rule="evenodd" clip-rule="evenodd" d="M106.625 98.5446C96.123 102.069 95.7074 102.235 95.7074 102.911C95.7074 103.025 95.8499 103.261 96.0241 103.435C96.2818 103.693 96.4555 103.735 96.9577 103.664C97.297 103.616 102.179 102.04 107.807 100.16C117.075 97.065 118.061 96.7052 118.264 96.3431C118.463 95.9869 118.463 95.8984 118.259 95.5322C118.085 95.2193 117.906 95.1144 117.512 95.0928C117.174 95.0745 113.381 96.277 106.625 98.5446Z" fill="#FFE78D"/>
<path fill-rule="evenodd" clip-rule="evenodd" d="M124.895 85.2678C124.945 85.3979 124.986 88.2566 124.986 91.6206V97.7369H124.636C124.444 97.7369 123.761 97.8715 123.119 98.0358C119.323 99.0074 116.433 101.952 115.334 105.967C115.144 106.663 115.071 107.489 115.069 108.948C115.067 110.82 115.1 111.063 115.532 112.318C116.396 114.83 117.687 116.561 119.701 117.91C120.917 118.723 122.674 119.361 124.112 119.512L124.986 119.603V123.849C124.986 128.306 124.951 128.572 124.291 129.143C123.931 129.456 89.6061 142.132 89.1212 142.132C89.0511 142.132 89.0089 131.961 89.0269 119.531L89.0601 96.9305L102.952 92.2673C110.593 89.7024 118.525 87.0297 120.579 86.3279C122.633 85.6263 124.424 85.0475 124.559 85.0417C124.694 85.036 124.845 85.1378 124.895 85.2678ZM95.7074 102.911C95.7074 102.235 96.123 102.069 106.625 98.5446C113.381 96.277 117.174 95.0745 117.512 95.0928C117.906 95.1144 118.085 95.2193 118.259 95.5322C118.463 95.8984 118.463 95.9869 118.264 96.3431C118.061 96.7052 117.075 97.065 107.807 100.16C102.179 102.04 97.297 103.616 96.9577 103.664C96.4555 103.735 96.2818 103.693 96.0241 103.435C95.8499 103.261 95.7074 103.025 95.7074 102.911Z" fill="#FFD652"/>
<path d="M82.0393 98.923C83.8838 98.9224 85.463 98.7513 86.7821 98.409L87.1929 98.3024V120.583V142.864L86.2592 143.302C84.9133 143.935 83.9007 144.134 82.0393 144.132C80.275 144.131 79.2093 143.901 77.9005 143.237L77.1845 142.874V120.629V98.3831L78.5662 98.6534C79.4985 98.8357 80.6283 98.9235 82.0393 98.923Z" fill="#FFD451"/>
<path fill-rule="evenodd" clip-rule="evenodd" d="M38.3493 124.232L38.346 120.009V117.551C39.433 117.666 41.0212 117.605 41.8501 117.389C43.1969 117.038 44.4468 116.303 45.5253 115.23C46.6087 114.151 47.2611 113.107 47.7694 111.638C48.041 110.854 48.1063 110.336 48.1094 108.948C48.1155 106.094 47.3267 104.044 45.5163 102.208C44.4366 101.113 43.5563 100.547 42.1301 100.029C41.0687 99.6432 39.5513 99.5007 38.346 99.6509V97.7069V91.3644C38.346 84.5474 38.3584 84.426 39.1265 83.7179C39.3461 83.5155 40.1938 83.0302 40.6387 82.9599L42.4203 83.6276C42.4542 83.6614 44.5594 84.3885 47.0987 85.2433C49.6378 86.0982 55.0428 87.9525 59.1097 89.364C67.5321 92.2873 75.1841 94.9191 76.0641 95.1955C76.7909 95.4236 77.129 95.7021 77.246 96.1685C77.3497 96.5815 77.415 96.6058 79.2758 96.9274C81.8902 97.3791 86.5353 96.9955 86.9688 96.2921C87.4804 95.4619 87.5857 95.4227 105.303 89.4954C114.976 86.2592 122.889 83.5777 122.886 83.5366L124.806 82.8852C125.376 82.8858 126.078 83.6242 126.422 84.1922C126.683 84.624 126.709 85.1312 126.778 91.22L126.853 97.7824V99.7202C125.219 99.4184 123.614 99.6749 121.876 100.501C121.033 100.902 120.484 101.311 119.617 102.186C117.797 104.025 116.873 106.256 116.879 108.798C116.885 111.399 117.748 113.522 119.527 115.313C121.074 116.87 123 117.684 124.986 117.729C125.581 117.742 126.181 117.686 126.778 117.56V119.984V124.314V128.645L126.367 129.43C126.141 129.862 125.721 130.401 125.434 130.627C125.099 130.891 122.361 131.99 117.815 133.685C107.217 137.638 100.008 140.286 93.7655 142.518C90.6846 143.62 87.8277 144.666 87.4169 144.843C85.3404 145.736 84.6246 145.909 82.6928 145.984C80.5379 146.067 79.1948 145.84 77.4538 145.099C76.8817 144.855 73.0412 143.387 68.9194 141.836C60.8132 138.785 56.7106 137.231 55.3005 136.676C54.3137 136.288 50.1841 134.712 44.3212 132.485C42.2261 131.69 40.3439 130.951 40.1385 130.844C39.5763 130.55 38.9968 129.879 38.6569 129.127C38.3741 128.502 38.3523 128.156 38.3493 124.232ZM124.986 91.6206C124.986 88.2566 124.945 85.3979 124.895 85.2678C124.845 85.1378 124.694 85.036 124.559 85.0417C124.424 85.0475 122.633 85.6263 120.579 86.3279C118.525 87.0297 110.593 89.7024 102.952 92.2673L89.0601 96.9305L89.0269 119.531C89.0089 131.961 89.0511 142.132 89.1212 142.132C89.6061 142.132 123.931 129.456 124.291 129.143C124.951 128.572 124.986 128.306 124.986 123.849V119.603L124.112 119.512C122.674 119.361 120.917 118.723 119.701 117.91C117.687 116.561 116.396 114.83 115.532 112.318C115.1 111.063 115.067 110.82 115.069 108.948C115.071 107.489 115.144 106.663 115.334 105.967C116.433 101.952 119.323 99.0074 123.119 98.0358C123.761 97.8715 124.444 97.7369 124.636 97.7369H124.986V91.6206ZM86.7821 98.409C85.463 98.7513 83.8838 98.9224 82.0393 98.923C80.6283 98.9235 79.4985 98.8357 78.5662 98.6534L77.1845 98.3831V120.629V142.874L77.9005 143.237C79.2093 143.901 80.275 144.131 82.0393 144.132C83.9007 144.134 84.9133 143.935 86.2592 143.302L87.1929 142.864V120.583V98.3024L86.7821 98.409ZM56.2715 90.3919C55.5731 90.1462 51.8019 88.8396 47.891 87.4883C43.9801 86.1371 40.7165 85.0314 40.6387 85.0314C40.1671 85.0314 40.1385 85.4013 40.139 91.5262L40.1396 97.6622L41.4438 97.9154C42.3286 98.0872 43.205 98.3955 44.1694 98.8743C45.3405 99.4558 45.8072 99.7988 46.8188 100.822C47.855 101.87 48.1621 102.304 48.7873 103.6C49.7914 105.683 50.058 106.98 49.9595 109.304C49.8287 112.383 48.9287 114.495 46.8606 116.574C45.2177 118.226 43.3061 119.151 40.8481 119.483L40.1385 119.579V123.77C40.1385 123.968 40.1384 124.159 40.1383 124.342C40.1363 127.251 40.1356 128.326 40.6693 128.918C40.9819 129.265 41.4779 129.447 42.2644 129.735L42.3285 129.759C42.3933 129.782 42.46 129.807 42.5286 129.832C45.3746 130.884 55.7748 134.789 56.1221 134.936C56.4477 135.074 63.7804 137.857 72.3701 141.101C73.8713 141.668 75.1319 142.132 75.1715 142.132C75.211 142.132 75.2264 131.958 75.2057 119.523L75.1679 96.9148L73.45 96.3332C71.6531 95.725 58.4696 91.1653 56.2715 90.3919Z" fill="#FDBC12"/>
<path fill-rule="evenodd" clip-rule="evenodd" d="M59.8594 67.098C59.432 66.4976 58.0214 65.6013 57.0061 65.285C52.9269 64.0146 48.4361 66.2576 48.4521 69.5575C48.4576 70.6997 48.8939 71.6481 49.7972 72.4813C51.2552 73.826 53.7377 74.5073 55.8607 74.1452C58.7558 73.6515 60.758 71.8077 60.7495 69.6433C60.7462 68.7977 60.4343 67.9061 59.8594 67.098Z" fill="#FFEBD0"/>
<path fill-rule="evenodd" clip-rule="evenodd" d="M115.932 69.5605C115.909 67.3944 114.131 65.6754 111.293 65.0736C109.63 64.721 108.163 64.8874 106.635 65.602C105.254 66.2482 104.603 66.8263 104.082 67.8708C103.499 69.0364 103.466 70.1101 103.976 71.2047C104.986 73.3713 108.312 74.6887 111.247 74.0849C112.677 73.7905 113.607 73.3514 114.498 72.5496C115.481 71.6657 115.945 70.6985 115.932 69.5605Z" fill="#FFEBD0"/>
<path d="M38.346 120.009V117.551C38.1218 117.527 37.919 117.496 37.7485 117.457C36.7329 117.225 35.07 116.351 34.2055 115.594C32.6474 114.23 31.441 111.872 31.1506 109.621C31.0148 108.568 31.0296 108.123 31.2387 106.97C31.9091 103.273 34.4078 100.517 37.7858 99.7477C37.9621 99.7076 38.1499 99.6754 38.346 99.6509V97.7069L37.2201 97.9576C34.1147 98.6489 31.2891 101.083 30.063 104.123C29.0535 106.626 28.9649 109.537 29.8207 112.087C30.0827 112.868 30.4564 113.78 30.6511 114.113C31.3125 115.246 32.3842 116.556 33.1449 117.162C34.075 117.903 33.9783 117.915 31.3563 117.378C25.9298 116.268 19.9815 113.469 15.7187 110.021C11.7654 106.823 8.22796 102.533 5.94889 98.1746C3.49176 93.4755 2.30106 88.9268 2.09731 83.4619C1.87055 77.3801 3.44366 71.2088 6.57419 65.8987C9.48066 60.9691 13.3183 57.0805 18.1994 54.1193C19.1949 53.5154 19.9682 52.9404 20.0682 52.7298C20.1981 52.456 20.1905 52.1042 20.0365 51.2495C19.9252 50.6329 19.7579 49.1924 19.6647 48.0486C19.3237 43.8664 20.0114 39.6969 21.7007 35.7039C22.5598 33.6734 23.3983 32.1529 24.6032 30.4408C25.76 28.7971 28.0992 26.3216 29.7567 24.9873C33.525 21.9536 38.5226 19.8274 43.5814 19.1055C45.2389 18.869 49.6837 18.9983 51.1179 19.3248C52.6078 19.6639 52.747 19.5774 53.6871 17.7264C57.1122 10.9818 63.8378 5.7404 71.9562 3.48868C73.5305 3.05205 76.0114 2.56222 77.8567 2.32365C79.1608 2.15519 84.0659 2.23905 85.5306 2.45504C91.2911 3.30437 96.0864 5.27089 100.489 8.58914C104.217 11.3998 107.563 15.6469 109.132 19.5603C109.782 21.1822 109.814 21.1937 112.106 20.6325C115.272 19.8575 117.057 19.6632 120.206 19.7508C121.856 19.7968 123.48 19.9279 124.239 20.0766C133.827 21.9563 142.062 28.6834 146.15 37.974C146.991 39.8861 147.583 41.6756 148.144 43.9999C148.937 47.2878 149.103 48.8672 149.065 52.7443C149.045 54.6763 149.014 56.6566 148.995 57.1449L148.961 58.033L150.491 58.8856C152.651 60.0898 154.231 61.2581 156.025 62.9784C158.621 65.4681 160.466 67.9816 162.046 71.1802C165.023 77.2048 165.748 84.3079 164.107 91.355C163.028 95.9831 160.472 101.056 157.152 105.158C155.09 107.705 151.866 110.642 149.11 112.483C145.288 115.038 140.441 116.924 135.741 117.688C134.228 117.934 130.811 118.169 130.811 118.027C130.811 117.98 131.157 117.688 131.578 117.379C132.582 116.641 133.959 114.892 134.621 113.515C134.912 112.91 135.281 111.82 135.442 111.093C136.753 105.159 133.394 99.3201 127.931 98.0359L126.853 97.7824V99.7202C127.289 99.8008 127.728 99.9211 128.171 100.081C129.614 100.601 130.578 101.244 131.582 102.353C133.091 104.022 133.848 106.072 133.851 108.499C133.856 111.705 132.403 114.528 129.872 116.23C128.882 116.895 127.835 117.337 126.778 117.56V119.984L128.907 120.086C133.861 120.324 139.169 119.419 143.957 117.521C152.326 114.203 159.637 107.245 163.652 98.7772C165.949 93.9319 166.984 89.3822 167 84.0598C167.011 80.2908 166.551 77.2657 165.467 73.9887C164.333 70.5564 162.588 67.3195 160.393 64.5739C158.049 61.6428 154.371 58.4887 151.757 57.1688L150.969 56.7706L151.08 55.9906C151.26 54.7364 151.209 49.8229 150.999 48.0358C149.977 39.3791 146.472 32.0348 140.648 26.3506C133.639 19.5088 124.456 16.45 115.114 17.8448C113.841 18.0348 112.074 18.3922 111.364 18.6029C111.167 18.6615 110.932 18.3176 110.291 17.0301C108.735 13.908 107.114 11.7053 104.501 9.16417C101.891 6.62575 99.5938 5.02874 96.1096 3.33113C92.7293 1.68404 88.6073 0.516618 84.8243 0.134853C82.7402 -0.0754614 78.967 -0.0343552 76.9809 0.220354C74.9069 0.486274 72.8628 0.904064 70.9803 1.44682C66.9561 2.60706 62.5109 4.89765 59.4084 7.40991C57.9511 8.59003 55.368 11.2637 54.313 12.6844C53.4766 13.8105 52.1296 15.9771 51.7707 16.7736C51.5887 17.1774 51.5409 17.1954 50.8999 17.104C49.0399 16.8388 46.632 16.7041 45.2921 16.7904C38.1942 17.247 31.7444 20.0171 26.631 24.8047C22.009 29.1321 18.8168 35.2696 17.7884 41.806C17.4766 43.7872 17.4661 48.4698 17.7689 50.4057C17.9685 51.6814 17.9654 51.7356 17.6807 51.9005C17.5181 51.9947 16.6059 52.5809 15.6533 53.2035C7.92891 58.2516 2.18171 66.8999 0.559009 75.9167C-0.0978091 79.5669 -0.182358 84.129 0.340019 87.722C1.42869 95.2087 5.10162 102.511 10.6288 108.177C12.7848 110.387 14.2747 111.673 16.419 113.175C22.5704 117.482 30.1868 120.009 37.0174 120.009H38.346Z" fill="#FFEBC1"/>
<path fill-rule="evenodd" clip-rule="evenodd" d="M56.2715 90.3919C55.5731 90.1462 51.8019 88.8396 47.891 87.4883C43.9801 86.1371 40.7165 85.0314 40.6387 85.0314C40.1671 85.0314 40.1385 85.4013 40.139 91.5262L40.1396 97.6622L41.4438 97.9154C42.3286 98.0872 43.205 98.3955 44.1694 98.8743C45.3405 99.4558 45.8072 99.7988 46.8188 100.822C47.855 101.87 48.1621 102.304 48.7873 103.6C49.7914 105.683 50.058 106.98 49.9595 109.304C49.8287 112.383 48.9287 114.495 46.8606 116.574C45.2177 118.226 43.3061 119.151 40.8481 119.483L40.1385 119.579V123.77C40.1385 123.968 40.1384 124.159 40.1383 124.342C40.1363 127.251 40.1356 128.326 40.6693 128.918C40.9819 129.265 41.4779 129.447 42.2644 129.735L42.3285 129.759C42.3933 129.782 42.46 129.807 42.5286 129.832C45.3746 130.884 55.7748 134.789 56.1221 134.936C56.4477 135.074 63.7804 137.857 72.3701 141.101C73.8713 141.668 75.1319 142.132 75.1715 142.132C75.211 142.132 75.2264 131.958 75.2057 119.523L75.1679 96.9148L73.45 96.3332C71.6531 95.725 58.4696 91.1653 56.2715 90.3919Z" fill="#FFD652"/>
<path d="M70.7612 90.3236C67.3516 89.1447 60.2685 86.698 55.0212 84.8867C49.7736 83.0755 45.4043 81.5977 45.3115 81.6028C44.9124 81.6252 44.3504 81.9557 43.3872 82.7345C42.8215 83.1918 42.3865 83.5937 42.4203 83.6276C42.4542 83.6614 44.5594 84.3885 47.0987 85.2433C49.6378 86.0982 55.0428 87.9525 59.1097 89.364C67.5321 92.2873 75.1841 94.9191 76.0641 95.1955C76.7909 95.4236 77.129 95.7021 77.246 96.1685C77.3497 96.5815 77.415 96.6058 79.2758 96.9274C81.8902 97.3791 86.5353 96.9955 86.9688 96.2921C87.4804 95.4619 87.5857 95.4227 105.303 89.4954C114.976 86.2592 122.889 83.5777 122.886 83.5366C122.88 83.4184 121.067 82.1091 120.515 81.8231C120.186 81.653 119.856 81.5961 119.551 81.6571C119.296 81.7082 111.592 84.2393 102.43 87.2819L85.7738 92.8138L84.5787 94.0677C83.9215 94.7573 83.2369 95.3942 83.0575 95.483C82.6323 95.6931 81.2888 95.6903 80.8718 95.4783C80.6923 95.3872 80.0077 94.7576 79.3505 94.0792C78.5068 93.2084 77.9798 92.7901 77.5579 92.6565C77.2293 92.5523 74.1708 91.5026 70.7612 90.3236Z" fill="#F5F5F5"/>
<path fill-rule="evenodd" clip-rule="evenodd" d="M104.284 65.9258C105.083 65.189 106.469 64.4677 107.625 64.1872C108.095 64.0732 109.051 63.9754 109.749 63.9697C112.821 63.9449 115.3 65.2173 116.353 67.3593C116.786 68.2399 116.844 68.5025 116.843 69.5586C116.841 70.5668 116.774 70.8941 116.422 71.6149C115.648 73.198 114.042 74.4134 112.043 74.9291C110.912 75.221 108.604 75.2352 107.559 74.9569C105.509 74.4107 103.819 73.1447 103.073 71.5952C102.747 70.9173 102.668 70.5397 102.663 69.6281C102.658 68.6514 102.722 68.368 103.141 67.5171C103.414 66.9626 103.912 66.2692 104.284 65.9258ZM111.293 65.0736C114.131 65.6754 115.909 67.3944 115.932 69.5605C115.945 70.6985 115.481 71.6657 114.498 72.5496C113.607 73.3514 112.677 73.7905 111.247 74.0849C108.312 74.6887 104.986 73.3713 103.976 71.2047C103.466 70.1101 103.499 69.0364 104.082 67.8708C104.603 66.8263 105.254 66.2482 106.635 65.602C108.163 64.8874 109.63 64.721 111.293 65.0736Z" fill="#FFEBD0"/>
<path fill-rule="evenodd" clip-rule="evenodd" d="M52.3876 64.1955C50.3353 64.7469 48.7107 65.9647 47.9443 67.5263C47.5993 68.2291 47.5328 68.5581 47.5328 69.5605C47.5328 70.5441 47.6036 70.9074 47.9316 71.6077C48.6667 73.1771 50.2975 74.4101 52.3432 74.9433C53.4318 75.227 55.626 75.2257 56.8345 74.9405C60.0106 74.1911 62.1368 71.534 61.6536 68.918C61.3076 67.0458 60.2924 65.7521 58.4636 64.8527C57.792 64.5224 56.8803 64.1853 56.4379 64.1037C55.295 63.8926 53.3507 63.9367 52.3876 64.1955ZM59.8594 67.098C59.432 66.4976 58.0214 65.6013 57.0061 65.285C52.9269 64.0146 48.4361 66.2576 48.4521 69.5575C48.4576 70.6997 48.8939 71.6481 49.7972 72.4813C51.2552 73.826 53.7377 74.5073 55.8607 74.1452C58.7558 73.6515 60.758 71.8077 60.7495 69.6433C60.7462 68.7977 60.4343 67.9061 59.8594 67.098Z" fill="#FFEED6"/>
<path fill-rule="evenodd" clip-rule="evenodd" d="M81.0659 61.3919C80.2588 61.821 79.8733 62.5005 79.8733 63.4941C79.8733 64.5992 80.3377 65.3171 81.2872 65.6801C82.4952 66.1416 83.5762 65.7935 84.3173 64.704C84.7384 64.0848 84.7643 63.0379 84.3765 62.3085C83.8079 61.2394 82.1933 60.7923 81.0659 61.3919Z" fill="#FFEDC8"/>
<path fill-rule="evenodd" clip-rule="evenodd" d="M122.777 81.972C123.968 82.8656 124.506 82.8848 124.806 82.8852L122.886 83.5366C122.88 83.4184 121.067 82.1091 120.515 81.8231C120.186 81.653 119.856 81.5961 119.551 81.6571C119.296 81.7082 111.592 84.2393 102.43 87.2819L85.7738 92.8138L84.5787 94.0677C83.9215 94.7573 83.2369 95.3942 83.0575 95.483C82.6323 95.6931 81.2888 95.6903 80.8718 95.4783C80.6923 95.3872 80.0077 94.7576 79.3505 94.0792C78.5068 93.2084 77.9798 92.7901 77.5579 92.6565C77.2293 92.5523 74.1708 91.5026 70.7612 90.3236C67.3516 89.1447 60.2685 86.698 55.0212 84.8867C49.7736 83.0755 45.4043 81.5977 45.3115 81.6028C44.9124 81.6252 44.3504 81.9557 43.3872 82.7345C42.8215 83.1918 42.3865 83.5937 42.4203 83.6276L40.6387 82.9599C40.7217 82.9468 40.7928 82.9373 40.8561 82.9289C41.252 82.8763 41.3385 82.8648 42.1003 82.2496C43.7567 80.9118 44.076 80.7134 44.8656 80.5312C45.5508 80.3734 45.6981 80.4013 47.5328 81.0388C60.8864 85.6789 66.5887 87.6474 73.6641 90.0592C75.959 90.8416 78.153 91.642 78.5398 91.8381C78.9513 92.0468 79.628 92.6283 80.1718 93.2405C81.1154 94.303 81.8036 94.7015 82.3525 94.5036C82.5089 94.4471 83.2082 93.8127 83.9065 93.0936L85.1762 91.7861L102.284 86.0919C111.693 82.9601 119.524 80.398 119.687 80.3985C120.429 80.4006 121.214 80.8 122.777 81.972Z" fill="#FFEBB9"/>
<path fill-rule="evenodd" clip-rule="evenodd" d="M38.346 91.3644V97.7069L37.2201 97.9576C34.1147 98.6489 31.2891 101.083 30.063 104.123C29.0535 106.626 28.9649 109.537 29.8207 112.087C30.0827 112.868 30.4564 113.78 30.6511 114.113C31.3125 115.246 32.3842 116.556 33.1449 117.162C34.075 117.903 33.9783 117.915 31.3563 117.378C25.9298 116.268 19.9815 113.469 15.7187 110.021C11.7654 106.823 8.22796 102.533 5.94889 98.1746C3.49176 93.4755 2.30106 88.9268 2.09731 83.4619C1.87055 77.3801 3.44366 71.2088 6.57419 65.8987C9.48066 60.9691 13.3183 57.0805 18.1994 54.1193C19.1949 53.5154 19.9682 52.9404 20.0682 52.7298C20.1981 52.456 20.1905 52.1042 20.0365 51.2495C19.9252 50.6329 19.7579 49.1924 19.6647 48.0486C19.3237 43.8664 20.0114 39.6969 21.7007 35.7039C22.5598 33.6734 23.3983 32.1529 24.6032 30.4408C25.76 28.7971 28.0992 26.3216 29.7567 24.9873C33.525 21.9536 38.5226 19.8274 43.5814 19.1055C45.2389 18.869 49.6837 18.9983 51.1179 19.3248C52.6078 19.6639 52.747 19.5774 53.6871 17.7264C57.1122 10.9818 63.8378 5.7404 71.9562 3.48868C73.5305 3.05205 76.0114 2.56222 77.8567 2.32365C79.1608 2.15519 84.0659 2.23905 85.5306 2.45504C91.2911 3.30437 96.0864 5.27089 100.489 8.58914C104.217 11.3998 107.563 15.6469 109.132 19.5603C109.782 21.1822 109.814 21.1937 112.106 20.6325C115.272 19.8575 117.057 19.6632 120.206 19.7508C121.856 19.7968 123.48 19.9279 124.239 20.0766C133.827 21.9563 142.062 28.6834 146.15 37.974C146.991 39.8861 147.583 41.6756 148.144 43.9999C148.937 47.2878 149.103 48.8672 149.065 52.7443C149.045 54.6763 149.014 56.6566 148.995 57.1449L148.961 58.033L150.491 58.8856C152.651 60.0898 154.231 61.2581 156.025 62.9784C158.621 65.4681 160.466 67.9816 162.046 71.1802C165.023 77.2048 165.748 84.3079 164.107 91.355C163.028 95.9831 160.472 101.056 157.152 105.158C155.09 107.705 151.866 110.642 149.11 112.483C145.288 115.038 140.441 116.924 135.741 117.688C134.228 117.934 130.811 118.169 130.811 118.027C130.811 117.98 131.157 117.688 131.578 117.379C132.582 116.641 133.959 114.892 134.621 113.515C134.912 112.91 135.281 111.82 135.442 111.093C136.753 105.159 133.394 99.3201 127.931 98.0359L126.853 97.7824L126.778 91.22C126.709 85.1312 126.683 84.624 126.422 84.1922C126.078 83.6242 125.376 82.8858 124.806 82.8852C124.506 82.8848 123.968 82.8656 122.777 81.972C121.214 80.8 120.429 80.4006 119.687 80.3985C119.524 80.398 111.693 82.9601 102.284 86.0919L85.1762 91.7861L83.9065 93.0936C83.2082 93.8127 82.5089 94.4471 82.3525 94.5036C81.8036 94.7015 81.1154 94.303 80.1718 93.2405C79.628 92.6283 78.9513 92.0468 78.5398 91.8381C78.153 91.642 75.959 90.8416 73.6641 90.0592C66.5887 87.6474 60.8864 85.6789 47.5328 81.0388C45.6981 80.4013 45.5508 80.3734 44.8656 80.5312C44.076 80.7134 43.7567 80.9118 42.1003 82.2496C41.3385 82.8648 41.252 82.8763 40.8561 82.9289C40.7928 82.9373 40.7217 82.9468 40.6387 82.9599C40.1938 83.0302 39.3461 83.5155 39.1265 83.7179C38.3584 84.426 38.346 84.5474 38.346 91.3644ZM104.284 65.9258C105.083 65.189 106.469 64.4677 107.625 64.1872C108.095 64.0732 109.051 63.9754 109.749 63.9697C112.821 63.9449 115.3 65.2173 116.353 67.3593C116.786 68.2399 116.844 68.5025 116.843 69.5586C116.841 70.5668 116.774 70.8941 116.422 71.6149C115.648 73.198 114.042 74.4134 112.043 74.9291C110.912 75.221 108.604 75.2352 107.559 74.9569C105.509 74.4107 103.819 73.1447 103.073 71.5952C102.747 70.9173 102.668 70.5397 102.663 69.6281C102.658 68.6514 102.722 68.368 103.141 67.5171C103.414 66.9626 103.912 66.2692 104.284 65.9258ZM52.3876 64.1955C50.3353 64.7469 48.7107 65.9647 47.9443 67.5263C47.5993 68.2291 47.5328 68.5581 47.5328 69.5605C47.5328 70.5441 47.6036 70.9074 47.9316 71.6077C48.6667 73.1771 50.2975 74.4101 52.3432 74.9433C53.4318 75.227 55.626 75.2257 56.8345 74.9405C60.0106 74.1911 62.1368 71.534 61.6536 68.918C61.3076 67.0458 60.2924 65.7521 58.4636 64.8527C57.792 64.5224 56.8803 64.1853 56.4379 64.1037C55.295 63.8926 53.3507 63.9367 52.3876 64.1955ZM81.0659 61.3919C80.2588 61.821 79.8733 62.5005 79.8733 63.4941C79.8733 64.5992 80.3377 65.3171 81.2872 65.6801C82.4952 66.1416 83.5762 65.7935 84.3173 64.704C84.7384 64.0848 84.7643 63.0379 84.3765 62.3085C83.8079 61.2394 82.1933 60.7923 81.0659 61.3919Z" fill="white"/>
<path fill-rule="evenodd" clip-rule="evenodd" d="M73.8541 59.24C74.4767 60.8486 74.0734 62.4927 72.9739 62.8287C72.0871 63.0997 71.3336 62.7416 70.7897 61.7904C69.985 60.3832 68.3076 59.54 66.6181 59.6933C65.3231 59.8107 64.3822 60.3616 63.4971 61.5205C62.6114 62.6801 62.127 62.9961 61.3887 62.896C60.3526 62.7555 59.692 61.7837 59.7814 60.5308C59.8536 59.5158 60.3197 58.5012 61.184 57.4767C62.8606 55.4891 65.5904 54.4572 68.0847 54.8682C70.6822 55.296 73.0106 57.0604 73.8541 59.24Z" fill="#885C2F"/>
<path fill-rule="evenodd" clip-rule="evenodd" d="M104.672 59.3459C105.295 60.9544 104.892 62.5985 103.792 62.9346C102.905 63.2056 102.152 62.8474 101.608 61.8963C100.803 60.4891 99.1259 59.6459 97.4364 59.7991C96.1414 59.9166 95.2005 60.4674 94.3153 61.6263C93.4297 62.786 92.9453 63.102 92.207 63.0018C91.1709 62.8613 90.5103 61.8896 90.5997 60.6367C90.6719 59.6217 91.1379 58.6071 92.0022 57.5825C93.6789 55.5949 96.4087 54.5631 98.9029 54.974C101.5 55.4018 103.829 57.1662 104.672 59.3459Z" fill="#885C2F"/>
</svg>
