<svg width="240" height="210" viewBox="0 0 240 210" fill="none" xmlns="http://www.w3.org/2000/svg">
<path fill-rule="evenodd" clip-rule="evenodd" d="M153.234 141.742C138.141 146.812 137.544 147.051 137.544 148.022C137.544 148.186 137.748 148.526 137.999 148.776C138.369 149.147 138.619 149.209 139.34 149.106C139.828 149.037 146.844 146.769 154.932 144.066C168.251 139.614 169.668 139.097 169.96 138.576C170.247 138.063 170.246 137.936 169.953 137.409C169.703 136.959 169.446 136.808 168.88 136.777C168.394 136.751 162.943 138.481 153.234 141.742Z" fill="#FFE78D"/>
<path fill-rule="evenodd" clip-rule="evenodd" d="M179.49 122.646C179.562 122.833 179.62 126.945 179.62 131.783V140.581H179.118C178.842 140.581 177.86 140.774 176.937 141.01C171.482 142.408 167.328 146.643 165.75 152.418C165.477 153.419 165.371 154.608 165.369 156.706C165.366 159.399 165.414 159.749 166.034 161.554C167.275 165.167 169.13 167.657 172.026 169.596C173.773 170.766 176.298 171.684 178.364 171.9L179.62 172.032V178.14C179.62 184.549 179.57 184.933 178.622 185.754C178.104 186.203 128.775 204.436 128.078 204.436C127.978 204.436 127.917 189.808 127.943 171.928L127.991 139.421L147.955 132.713C158.936 129.024 170.335 125.18 173.287 124.17C176.239 123.161 178.813 122.329 179.007 122.32C179.201 122.312 179.418 122.458 179.49 122.646ZM137.544 148.022C137.544 147.051 138.141 146.812 153.234 141.742C162.943 138.481 168.394 136.751 168.88 136.777C169.446 136.808 169.703 136.959 169.953 137.409C170.246 137.936 170.247 138.063 169.96 138.576C169.668 139.097 168.251 139.614 154.932 144.066C146.844 146.769 139.828 149.037 139.34 149.106C138.619 149.209 138.369 149.147 137.999 148.776C137.748 148.526 137.544 148.186 137.544 148.022Z" fill="#FFD652"/>
<path d="M117.901 142.287C120.552 142.286 122.821 142.04 124.717 141.547L125.307 141.394V173.442V205.489L123.965 206.12C122.031 207.029 120.576 207.316 117.901 207.314C115.365 207.312 113.834 206.981 111.953 206.026L110.924 205.504V173.507V141.51L112.91 141.899C114.249 142.161 115.873 142.287 117.901 142.287Z" fill="#FFD451"/>
<path fill-rule="evenodd" clip-rule="evenodd" d="M55.1128 178.69L55.108 172.616V169.08C56.6702 169.245 58.9526 169.157 60.1439 168.847C62.0794 168.342 63.8756 167.286 65.4256 165.742C66.9826 164.191 67.9201 162.689 68.6507 160.576C69.0409 159.447 69.1348 158.703 69.1393 156.706C69.1481 152.602 68.0144 149.652 65.4127 147.012C63.861 145.437 62.5959 144.622 60.5462 143.877C59.0209 143.322 56.8402 143.117 55.108 143.334V140.537V131.415C55.108 121.609 55.1259 121.435 56.2297 120.416C56.5453 120.125 57.7636 119.427 58.4029 119.326L60.9633 120.286C61.0121 120.335 64.0375 121.381 67.6868 122.61C71.3358 123.84 79.1035 126.507 84.948 128.537C97.0521 132.742 108.049 136.528 109.314 136.925C110.358 137.253 110.844 137.654 111.012 138.325C111.161 138.919 111.255 138.954 113.929 139.416C117.687 140.066 124.362 139.514 124.985 138.502C125.72 137.308 125.872 137.252 151.334 128.726C165.235 124.071 176.607 120.215 176.603 120.155L179.362 119.218C180.18 119.219 181.19 120.281 181.684 121.098C182.06 121.72 182.097 122.449 182.196 131.207L182.304 140.646V143.433C179.955 142.999 177.649 143.368 175.152 144.556C173.939 145.132 173.151 145.721 171.905 146.98C169.289 149.625 167.961 152.833 167.97 156.491C167.979 160.232 169.219 163.285 171.776 165.861C173.998 168.1 176.766 169.272 179.62 169.336C180.475 169.355 181.338 169.274 182.196 169.093V172.58V178.808V185.037L181.606 186.167C181.281 186.788 180.677 187.563 180.264 187.889C179.783 188.268 175.848 189.849 169.316 192.287C154.085 197.972 143.724 201.781 134.753 204.992C130.325 206.576 126.219 208.081 125.629 208.335C122.645 209.621 121.616 209.87 118.84 209.977C115.743 210.096 113.813 209.77 111.311 208.703C110.489 208.353 104.969 206.241 99.0458 204.01C87.3962 199.623 81.5003 197.387 79.4738 196.589C78.0556 196.031 72.1209 193.764 63.6951 190.561C60.6842 189.417 57.9793 188.354 57.6841 188.2C56.8761 187.777 56.0434 186.812 55.5548 185.731C55.1484 184.832 55.1171 184.334 55.1128 178.69ZM179.62 131.783C179.62 126.945 179.562 122.833 179.49 122.646C179.418 122.458 179.201 122.312 179.007 122.32C178.813 122.329 176.239 123.161 173.287 124.17C170.335 125.18 158.936 129.024 147.955 132.713L127.991 139.421L127.943 171.928C127.917 189.808 127.978 204.436 128.078 204.436C128.775 204.436 178.104 186.203 178.622 185.754C179.57 184.933 179.62 184.549 179.62 178.14V172.032L178.364 171.9C176.298 171.684 173.773 170.766 172.026 169.596C169.13 167.657 167.275 165.167 166.034 161.554C165.414 159.749 165.366 159.399 165.369 156.706C165.371 154.608 165.477 153.419 165.75 152.418C167.328 146.643 171.482 142.408 176.937 141.01C177.86 140.774 178.842 140.581 179.118 140.581H179.62V131.783ZM124.717 141.547C122.821 142.04 120.552 142.286 117.901 142.287C115.873 142.287 114.249 142.161 112.91 141.899L110.924 141.51V173.507V205.504L111.953 206.026C113.834 206.981 115.365 207.312 117.901 207.314C120.576 207.316 122.031 207.029 123.965 206.12L125.307 205.489V173.442V141.394L124.717 141.547ZM80.8692 130.016C79.8656 129.662 74.4458 127.783 68.8254 125.839C63.205 123.896 58.5147 122.305 58.4029 122.305C57.7251 122.305 57.6841 122.838 57.6848 131.647L57.6857 140.473L59.56 140.837C60.8315 141.084 62.091 141.528 63.477 142.217C65.16 143.053 65.8307 143.546 67.2845 145.018C68.7737 146.526 69.215 147.149 70.1135 149.014C71.5565 152.009 71.9397 153.876 71.798 157.218C71.6102 161.647 70.3168 164.684 67.3446 167.675C64.9836 170.051 62.2364 171.381 58.7039 171.859L57.6841 171.997V178.025C57.6841 178.31 57.684 178.585 57.6838 178.848C57.681 183.033 57.6799 184.578 58.4469 185.431C58.8962 185.93 59.609 186.191 60.7392 186.605L60.8314 186.639C60.9245 186.673 61.0203 186.709 61.119 186.745C65.209 188.257 80.1554 193.874 80.6545 194.086C81.1225 194.285 91.6605 198.287 104.005 202.953C106.162 203.769 107.974 204.436 108.031 204.436C108.088 204.436 108.11 189.803 108.08 171.917L108.026 139.398L105.557 138.561C102.975 137.687 84.0281 131.128 80.8692 130.016Z" fill="#FDBC12"/>
<path fill-rule="evenodd" clip-rule="evenodd" d="M86.0255 96.5108C85.4113 95.6472 83.3841 94.358 81.9249 93.9031C76.0626 92.0758 69.6088 95.3021 69.6317 100.048C69.6397 101.691 70.2667 103.055 71.5649 104.254C73.6601 106.188 77.2278 107.168 80.2788 106.647C84.4394 105.937 87.317 103.285 87.3047 100.172C87.3 98.9556 86.8518 97.6731 86.0255 96.5108Z" fill="#FFEBD0"/>
<path fill-rule="evenodd" clip-rule="evenodd" d="M166.609 100.053C166.576 96.9372 164.021 94.4646 159.942 93.599C157.551 93.0919 155.443 93.3312 153.248 94.3591C151.263 95.2885 150.328 96.1199 149.578 97.6224C148.742 99.299 148.693 100.843 149.427 102.418C150.879 105.534 155.658 107.429 159.876 106.56C161.931 106.137 163.267 105.505 164.548 104.352C165.96 103.081 166.627 101.69 166.609 100.053Z" fill="#FFEBD0"/>
<path d="M55.108 172.616V169.08C54.7859 169.045 54.4943 169.001 54.2493 168.945C52.7898 168.612 50.4 167.354 49.1577 166.266C46.9184 164.304 45.1846 160.911 44.7673 157.674C44.5722 156.16 44.5934 155.52 44.894 153.861C45.8574 148.544 49.4483 144.58 54.303 143.473C54.5563 143.415 54.8262 143.369 55.108 143.334V140.537L53.49 140.898C49.0271 141.892 44.9663 145.394 43.2042 149.766C41.7535 153.366 41.6262 157.553 42.856 161.221C43.2326 162.344 43.7697 163.656 44.0494 164.135C45 165.765 46.5401 167.649 47.6335 168.521C48.97 169.587 48.8311 169.604 45.0629 168.832C37.2644 167.235 28.716 163.209 22.5898 158.249C16.9084 153.649 11.8246 147.48 8.54931 141.21C5.0181 134.451 3.30692 127.908 3.0141 120.048C2.68822 111.3 4.94898 102.424 9.44794 94.7859C13.6249 87.6953 19.1401 82.1021 26.1549 77.8429C27.5855 76.9743 28.6969 76.1472 28.8405 75.8442C29.0273 75.4503 29.0163 74.9444 28.795 73.7151C28.635 72.8282 28.3946 70.7562 28.2607 69.111C27.7705 63.0955 28.7589 57.0982 31.1867 51.3549C32.4213 48.4343 33.6263 46.2473 35.3578 43.7847C37.0203 41.4205 40.3821 37.8599 42.7642 35.9406C48.1796 31.5771 55.3618 28.5189 62.632 27.4805C65.0141 27.1403 71.4017 27.3263 73.4628 27.7959C75.604 28.2837 75.8041 28.1592 77.1551 25.4969C82.0774 15.7958 91.7429 8.25674 103.41 5.01796C105.673 4.38994 109.238 3.68538 111.89 3.34224C113.764 3.09993 120.813 3.22055 122.918 3.53122C131.197 4.75286 138.088 7.58142 144.415 12.3542C149.773 16.3969 154.582 22.5058 156.836 28.1347C157.77 30.4675 157.816 30.484 161.111 29.6769C165.66 28.5621 168.226 28.2826 172.751 28.4086C175.123 28.4749 177.457 28.6634 178.547 28.8773C192.326 31.581 204.161 41.2569 210.035 54.6201C211.244 57.3704 212.095 59.9444 212.901 63.2875C214.041 68.0167 214.28 70.2884 214.225 75.8651C214.197 78.644 214.152 81.4923 214.125 82.1947L214.076 83.472L216.274 84.6984C219.379 86.4305 221.65 88.1109 224.227 90.5854C227.958 94.1664 230.61 97.7817 232.881 102.383C237.159 111.048 238.201 121.265 235.842 131.401C234.292 138.058 230.619 145.355 225.847 151.254C222.884 154.918 218.25 159.142 214.29 161.791C208.797 165.465 201.832 168.179 195.077 169.277C192.902 169.631 187.993 169.968 187.993 169.765C187.993 169.697 188.488 169.278 189.095 168.832C190.537 167.772 192.517 165.256 193.468 163.275C193.886 162.405 194.416 160.837 194.647 159.791C196.531 151.256 191.704 142.858 183.854 141.011L182.304 140.646V143.433C182.931 143.549 183.561 143.722 184.198 143.952C186.271 144.7 187.657 145.624 189.1 147.221C191.268 149.621 192.356 152.569 192.361 156.061C192.368 160.672 190.28 164.732 186.642 167.18C185.22 168.137 183.715 168.773 182.196 169.093V172.58L185.255 172.727C192.376 173.069 200.003 171.768 206.884 169.037C218.912 164.264 229.419 154.257 235.189 142.077C238.49 135.107 239.977 128.563 240 120.908C240.016 115.487 239.354 111.136 237.798 106.422C236.167 101.485 233.66 96.8295 230.505 92.8803C227.136 88.6643 221.85 84.1276 218.094 82.2291L216.961 81.6564L217.121 80.5345C217.38 78.7304 217.307 71.6631 217.004 69.0925C215.536 56.6411 210.498 46.0775 202.129 37.9016C192.056 28.0605 178.86 23.661 165.433 25.6671C163.604 25.9404 161.064 26.4545 160.044 26.7576C159.76 26.8419 159.423 26.3472 158.501 24.4954C156.266 20.0046 153.936 16.8364 150.181 13.1814C146.431 9.5302 143.129 7.23312 138.122 4.79135C133.264 2.42224 127.34 0.743081 121.903 0.193967C118.908 -0.10854 113.486 -0.0494151 110.631 0.316948C107.651 0.699436 104.713 1.30037 102.008 2.08104C96.2243 3.74988 89.836 7.04456 85.3774 10.6581C83.283 12.3555 79.5708 16.2013 78.0545 18.2446C76.8526 19.8645 74.9168 22.9807 74.401 24.1264C74.1395 24.7072 74.0708 24.7332 73.1496 24.6016C70.4765 24.2202 67.0161 24.0265 65.0905 24.1505C54.8899 24.8074 45.6206 28.7918 38.2721 35.678C31.6298 41.9023 27.0421 50.7303 25.5641 60.1319C25.1161 62.9815 25.101 69.7169 25.5362 72.5014C25.823 74.3362 25.8185 74.4142 25.4093 74.6514C25.1758 74.7868 23.8647 75.6301 22.4957 76.5256C11.3948 83.7866 3.13539 96.2259 0.803367 109.195C-0.140564 114.446 -0.262071 121.007 0.488651 126.175C2.05321 136.944 7.33166 147.447 15.2749 155.597C18.3733 158.776 20.5145 160.626 23.5962 162.786C32.4365 168.981 43.3822 172.616 53.1987 172.616H55.108Z" fill="#FFEBC1"/>
<path fill-rule="evenodd" clip-rule="evenodd" d="M80.8692 130.016C79.8656 129.662 74.4458 127.783 68.8254 125.839C63.205 123.896 58.5147 122.305 58.4029 122.305C57.7251 122.305 57.6841 122.838 57.6848 131.647L57.6857 140.473L59.56 140.837C60.8315 141.084 62.091 141.528 63.477 142.217C65.16 143.053 65.8307 143.546 67.2845 145.018C68.7737 146.526 69.215 147.149 70.1135 149.014C71.5565 152.009 71.9397 153.876 71.798 157.218C71.6102 161.647 70.3168 164.684 67.3446 167.675C64.9836 170.051 62.2364 171.381 58.7039 171.859L57.6841 171.997V178.025C57.6841 178.31 57.684 178.585 57.6838 178.848C57.681 183.033 57.6799 184.578 58.4469 185.431C58.8962 185.93 59.609 186.191 60.7392 186.605L60.8314 186.639C60.9245 186.673 61.0203 186.709 61.119 186.745C65.209 188.257 80.1554 193.874 80.6545 194.086C81.1225 194.285 91.6605 198.287 104.005 202.953C106.162 203.769 107.974 204.436 108.031 204.436C108.088 204.436 108.11 189.803 108.08 171.917L108.026 139.398L105.557 138.561C102.975 137.687 84.0281 131.128 80.8692 130.016Z" fill="#FFD652"/>
<path d="M101.693 129.918C96.7928 128.222 86.6135 124.703 79.0723 122.097C71.531 119.492 65.2517 117.367 65.1184 117.374C64.5448 117.406 63.7372 117.882 62.3529 119.002C61.5399 119.659 60.9148 120.238 60.9633 120.286C61.0121 120.335 64.0375 121.381 67.6868 122.61C71.3358 123.84 79.1035 126.507 84.948 128.537C97.0521 132.742 108.049 136.528 109.314 136.925C110.358 137.253 110.844 137.654 111.012 138.325C111.161 138.919 111.255 138.954 113.929 139.416C117.687 140.066 124.362 139.514 124.985 138.502C125.72 137.308 125.872 137.252 151.334 128.726C165.235 124.071 176.607 120.215 176.603 120.155C176.593 119.985 173.989 118.102 173.195 117.691C172.723 117.446 172.248 117.364 171.81 117.452C171.443 117.526 160.371 121.166 147.205 125.542L123.268 133.499L121.55 135.303C120.606 136.295 119.622 137.211 119.364 137.339C118.753 137.641 116.822 137.637 116.223 137.332C115.965 137.201 114.981 136.295 114.037 135.319C112.824 134.067 112.067 133.465 111.461 133.273C110.988 133.123 106.593 131.613 101.693 129.918Z" fill="#F5F5F5"/>
<path fill-rule="evenodd" clip-rule="evenodd" d="M149.869 94.8248C151.018 93.765 153.01 92.7274 154.671 92.3241C155.346 92.16 156.72 92.0194 157.723 92.0113C162.137 91.9756 165.7 93.8057 167.214 96.8866C167.836 98.1532 167.92 98.531 167.918 100.05C167.915 101.5 167.819 101.971 167.313 103.008C166.2 105.285 163.893 107.033 161.02 107.775C159.394 108.195 156.077 108.215 154.576 107.815C151.629 107.029 149.202 105.208 148.13 102.979C147.66 102.004 147.547 101.461 147.54 100.15C147.533 98.7451 147.625 98.3375 148.227 97.1137C148.619 96.316 149.335 95.3186 149.869 94.8248ZM159.942 93.599C164.021 94.4646 166.576 96.9372 166.609 100.053C166.627 101.69 165.96 103.081 164.548 104.352C163.267 105.505 161.931 106.137 159.876 106.56C155.658 107.429 150.879 105.534 149.427 102.418C148.693 100.843 148.742 99.299 149.578 97.6224C150.328 96.1199 151.263 95.2885 153.248 94.3591C155.443 93.3312 157.551 93.0919 159.942 93.599Z" fill="#FFEBD0"/>
<path fill-rule="evenodd" clip-rule="evenodd" d="M75.2876 92.3359C72.3381 93.129 70.0033 94.8807 68.902 97.1268C68.4061 98.1377 68.3106 98.611 68.3106 100.053C68.3106 101.467 68.4124 101.99 68.8838 102.997C69.9402 105.255 72.2838 107.028 75.2238 107.795C76.7882 108.203 79.9416 108.201 81.6783 107.791C86.2427 106.713 89.2984 102.891 88.6039 99.1287C88.1068 96.4358 86.6478 94.5749 84.0195 93.2813C83.0543 92.8061 81.7442 92.3213 81.1083 92.2039C79.4658 91.9003 76.6716 91.9637 75.2876 92.3359ZM86.0255 96.5108C85.4113 95.6472 83.3841 94.358 81.9249 93.9031C76.0626 92.0758 69.6088 95.3021 69.6317 100.048C69.6397 101.691 70.2667 103.055 71.5649 104.254C73.6601 106.188 77.2278 107.168 80.2788 106.647C84.4394 105.937 87.317 103.285 87.3047 100.172C87.3 98.9556 86.8518 97.6731 86.0255 96.5108Z" fill="#FFEED6"/>
<path fill-rule="evenodd" clip-rule="evenodd" d="M89.6943 78.7672C90.6616 77.7162 91.3649 77.268 92.7837 76.7988C94.746 76.1499 97.5521 77.0386 99.099 78.7986C100.234 80.0894 100.81 81.3326 101.08 83.0711C101.625 86.5728 99.9556 90.0517 97.048 91.4766C96.0843 91.9485 95.5543 92.0618 94.3083 92.0618C92.9655 92.0618 92.5858 91.967 91.4057 91.337C89.7565 90.4568 88.6226 89.049 87.9492 87.0452C87.5752 85.9327 87.4975 85.2968 87.5683 83.9276C87.6757 81.8471 88.3369 80.2419 89.6943 78.7672ZM95.9583 79.1084C96.5592 79.3827 97.1845 80.358 97.1845 81.021C97.1845 81.278 96.9023 81.771 96.5571 82.1167C96.0944 82.58 95.7252 82.7451 95.1518 82.7451C93.1896 82.7451 92.5997 80.1591 94.3455 79.2103C95.0578 78.8231 95.2997 78.8078 95.9583 79.1084Z" fill="#855B30"/>
<path fill-rule="evenodd" clip-rule="evenodd" d="M140.507 76.8109C139.141 77.1792 137.938 78.0153 136.924 79.3002C135.734 80.8077 135.3 82.2199 135.302 84.5726C135.304 86.2868 135.381 86.6708 135.974 87.9376C136.765 89.6295 137.911 90.8468 139.377 91.554C140.786 92.2331 142.997 92.2592 144.451 91.6139C147.288 90.3549 149.24 86.7358 148.807 83.5372C148.339 80.0795 146.343 77.5971 143.42 76.8345C141.963 76.4544 141.833 76.4533 140.507 76.8109ZM144.119 82.2386C144.805 81.4405 144.775 80.5444 144.038 79.7553C143.713 79.4079 143.254 79.0748 143.018 79.0151C142.019 78.762 140.893 79.779 140.893 80.9342C140.893 82.6327 143.036 83.4994 144.119 82.2386Z" fill="#855B30"/>
<path fill-rule="evenodd" clip-rule="evenodd" d="M144.038 79.7553C144.775 80.5444 144.805 81.4405 144.119 82.2386C143.036 83.4994 140.893 82.6327 140.893 80.9342C140.893 79.779 142.019 78.762 143.018 79.0151C143.254 79.0748 143.713 79.4079 144.038 79.7553Z" fill="#A48563"/>
<path fill-rule="evenodd" clip-rule="evenodd" d="M97.1845 81.021C97.1845 80.358 96.5592 79.3827 95.9583 79.1084C95.2997 78.8078 95.0578 78.8231 94.3455 79.2103C92.5997 80.1591 93.1896 82.7451 95.1518 82.7451C95.7252 82.7451 96.0944 82.58 96.5571 82.1167C96.9023 81.771 97.1845 81.278 97.1845 81.021Z" fill="#A48563"/>
<path fill-rule="evenodd" clip-rule="evenodd" d="M106.299 102.469C105.224 100.155 105.92 97.7903 107.82 97.307C109.352 96.9172 110.654 97.4323 111.594 98.8004C112.984 100.824 115.882 102.037 118.801 101.817C121.038 101.648 122.664 100.856 124.193 99.1887C125.724 97.5207 126.56 97.0662 127.836 97.2102C129.626 97.4123 130.767 98.81 130.613 100.612C130.488 102.072 129.683 103.531 128.19 105.005C125.293 107.864 120.577 109.348 116.267 108.757C111.78 108.142 107.757 105.604 106.299 102.469Z" fill="#885C2F"/>
<path fill-rule="evenodd" clip-rule="evenodd" d="M116.502 88.3033C115.342 88.9206 114.788 89.898 114.788 91.3271C114.788 92.9166 115.455 93.9493 116.82 94.4713C118.556 95.1352 120.11 94.6345 121.175 93.0674C121.78 92.1768 121.817 90.6709 121.26 89.6217C120.443 88.084 118.122 87.441 116.502 88.3033Z" fill="#FFEDC8"/>
<path fill-rule="evenodd" clip-rule="evenodd" d="M176.446 117.905C178.158 119.19 178.93 119.218 179.362 119.218L176.603 120.155C176.593 119.985 173.989 118.102 173.195 117.691C172.723 117.446 172.248 117.364 171.81 117.452C171.443 117.526 160.371 121.166 147.205 125.542L123.268 133.499L121.55 135.303C120.606 136.295 119.622 137.211 119.364 137.339C118.753 137.641 116.822 137.637 116.223 137.332C115.965 137.201 114.981 136.295 114.037 135.319C112.824 134.067 112.067 133.465 111.461 133.273C110.988 133.123 106.593 131.613 101.693 129.918C96.7928 128.222 86.6135 124.703 79.0723 122.097C71.531 119.492 65.2517 117.367 65.1184 117.374C64.5448 117.406 63.7372 117.882 62.3529 119.002C61.5399 119.659 60.9148 120.238 60.9633 120.286L58.4029 119.326C58.5222 119.307 58.6244 119.293 58.7153 119.281C59.2843 119.206 59.4086 119.189 60.5035 118.304C62.8838 116.38 63.3428 116.095 64.4776 115.833C65.4623 115.606 65.674 115.646 68.3106 116.563C87.5014 123.237 95.6964 126.068 105.865 129.537C109.163 130.663 112.316 131.814 112.872 132.096C113.463 132.396 114.435 133.232 115.217 134.113C116.573 135.641 117.562 136.215 118.351 135.93C118.576 135.849 119.581 134.936 120.584 133.902L122.409 132.021L146.995 123.831C160.517 119.326 171.772 115.641 172.005 115.642C173.072 115.645 174.2 116.219 176.446 117.905Z" fill="#FFEBB9"/>
<path fill-rule="evenodd" clip-rule="evenodd" d="M55.108 131.415V140.537L53.49 140.898C49.0271 141.892 44.9663 145.394 43.2042 149.766C41.7535 153.366 41.6262 157.553 42.856 161.221C43.2326 162.344 43.7697 163.656 44.0494 164.135C45 165.765 46.5401 167.649 47.6335 168.521C48.97 169.587 48.8311 169.604 45.0629 168.832C37.2644 167.235 28.716 163.209 22.5898 158.249C16.9084 153.649 11.8246 147.48 8.54931 141.21C5.0181 134.451 3.30692 127.908 3.0141 120.048C2.68822 111.3 4.94898 102.424 9.44794 94.7859C13.6249 87.6953 19.1401 82.1021 26.1549 77.8429C27.5855 76.9743 28.6969 76.1472 28.8405 75.8442C29.0273 75.4503 29.0163 74.9444 28.795 73.7151C28.635 72.8282 28.3946 70.7562 28.2607 69.111C27.7705 63.0955 28.7589 57.0982 31.1867 51.3549C32.4213 48.4343 33.6263 46.2473 35.3578 43.7847C37.0203 41.4205 40.3821 37.8599 42.7642 35.9406C48.1796 31.5771 55.3618 28.5189 62.632 27.4805C65.0141 27.1403 71.4017 27.3263 73.4628 27.7959C75.604 28.2837 75.8041 28.1592 77.1551 25.4969C82.0774 15.7958 91.7429 8.25674 103.41 5.01796C105.673 4.38994 109.238 3.68538 111.89 3.34224C113.764 3.09993 120.813 3.22055 122.918 3.53122C131.197 4.75286 138.088 7.58142 144.415 12.3542C149.773 16.3969 154.582 22.5058 156.836 28.1347C157.77 30.4675 157.816 30.484 161.111 29.6769C165.66 28.5621 168.226 28.2826 172.751 28.4086C175.123 28.4749 177.457 28.6634 178.547 28.8773C192.326 31.581 204.161 41.2569 210.035 54.6201C211.244 57.3704 212.095 59.9444 212.901 63.2875C214.041 68.0167 214.28 70.2884 214.225 75.8651C214.197 78.644 214.152 81.4923 214.125 82.1947L214.076 83.472L216.274 84.6984C219.379 86.4305 221.65 88.1109 224.227 90.5854C227.958 94.1664 230.61 97.7817 232.881 102.383C237.159 111.048 238.201 121.265 235.842 131.401C234.292 138.058 230.619 145.355 225.847 151.254C222.884 154.918 218.25 159.142 214.29 161.791C208.797 165.465 201.832 168.179 195.077 169.277C192.902 169.631 187.993 169.968 187.993 169.765C187.993 169.697 188.488 169.278 189.095 168.832C190.537 167.772 192.517 165.256 193.468 163.275C193.886 162.405 194.416 160.837 194.647 159.791C196.531 151.256 191.704 142.858 183.854 141.011L182.304 140.646L182.196 131.207C182.097 122.449 182.06 121.72 181.684 121.098C181.19 120.281 180.18 119.219 179.362 119.218C178.93 119.218 178.158 119.19 176.446 117.905C174.2 116.219 173.072 115.645 172.005 115.642C171.772 115.641 160.517 119.326 146.995 123.831L122.409 132.021L120.584 133.902C119.581 134.936 118.576 135.849 118.351 135.93C117.562 136.215 116.573 135.641 115.217 134.113C114.435 133.232 113.463 132.396 112.872 132.096C112.316 131.814 109.163 130.663 105.865 129.537C95.6964 126.068 87.5014 123.237 68.3106 116.563C65.674 115.646 65.4623 115.606 64.4776 115.833C63.3428 116.095 62.8838 116.38 60.5035 118.304C59.4086 119.189 59.2843 119.206 58.7153 119.281C58.6244 119.293 58.5222 119.307 58.4029 119.326C57.7636 119.427 56.5453 120.125 56.2297 120.416C55.1259 121.435 55.108 121.609 55.108 131.415ZM149.869 94.8248C151.018 93.765 153.01 92.7274 154.671 92.3241C155.346 92.16 156.72 92.0194 157.723 92.0113C162.137 91.9756 165.7 93.8057 167.214 96.8866C167.836 98.1532 167.92 98.531 167.918 100.05C167.915 101.5 167.819 101.971 167.313 103.008C166.2 105.285 163.893 107.033 161.02 107.775C159.394 108.195 156.077 108.215 154.576 107.815C151.629 107.029 149.202 105.208 148.13 102.979C147.66 102.004 147.547 101.461 147.54 100.15C147.533 98.7451 147.625 98.3375 148.227 97.1137C148.619 96.316 149.335 95.3186 149.869 94.8248ZM75.2876 92.3359C72.3381 93.129 70.0033 94.8807 68.902 97.1268C68.4061 98.1377 68.3106 98.611 68.3106 100.053C68.3106 101.467 68.4124 101.99 68.8838 102.997C69.9402 105.255 72.2838 107.028 75.2238 107.795C76.7882 108.203 79.9416 108.201 81.6783 107.791C86.2427 106.713 89.2984 102.891 88.6039 99.1287C88.1068 96.4358 86.6478 94.5749 84.0195 93.2813C83.0543 92.8061 81.7442 92.3213 81.1083 92.2039C79.4658 91.9003 76.6716 91.9637 75.2876 92.3359ZM89.6943 78.7672C90.6616 77.7162 91.3649 77.268 92.7837 76.7988C94.746 76.1499 97.5521 77.0386 99.099 78.7986C100.234 80.0894 100.81 81.3326 101.08 83.0711C101.625 86.5728 99.9556 90.0517 97.048 91.4766C96.0843 91.9485 95.5543 92.0618 94.3083 92.0618C92.9655 92.0618 92.5858 91.967 91.4057 91.337C89.7565 90.4568 88.6226 89.049 87.9492 87.0452C87.5752 85.9327 87.4975 85.2968 87.5683 83.9276C87.6757 81.8471 88.3369 80.2419 89.6943 78.7672ZM140.507 76.8109C139.141 77.1792 137.938 78.0153 136.924 79.3002C135.734 80.8077 135.3 82.2199 135.302 84.5726C135.304 86.2868 135.381 86.6708 135.974 87.9376C136.765 89.6295 137.911 90.8468 139.377 91.554C140.786 92.2331 142.997 92.2592 144.451 91.6139C147.288 90.3549 149.24 86.7358 148.807 83.5372C148.339 80.0795 146.343 77.5971 143.42 76.8345C141.963 76.4544 141.833 76.4533 140.507 76.8109ZM106.299 102.469C105.224 100.155 105.92 97.7903 107.82 97.307C109.352 96.9172 110.654 97.4323 111.594 98.8004C112.984 100.824 115.882 102.037 118.801 101.817C121.038 101.648 122.664 100.856 124.193 99.1887C125.724 97.5207 126.56 97.0662 127.836 97.2102C129.626 97.4123 130.767 98.81 130.613 100.612C130.488 102.072 129.683 103.531 128.19 105.005C125.293 107.864 120.577 109.348 116.267 108.757C111.78 108.142 107.757 105.604 106.299 102.469ZM116.502 88.3033C115.342 88.9206 114.788 89.898 114.788 91.3271C114.788 92.9166 115.455 93.9493 116.82 94.4713C118.556 95.1352 120.11 94.6345 121.175 93.0674C121.78 92.1768 121.817 90.6709 121.26 89.6217C120.443 88.084 118.122 87.441 116.502 88.3033Z" fill="white"/>
</svg>
